<?xml version="1.0" encoding="utf-8"?>
<!-- Generator: Adobe Illustrator 25.2.1, SVG Export Plug-In . SVG Version: 6.00 Build 0)  -->
<svg version="1.1" id="Layer_1" xmlns="http://www.w3.org/2000/svg" xmlns:xlink="http://www.w3.org/1999/xlink" x="0px" y="0px"
	 viewBox="0 0 512 512" style="enable-background:new 0 0 512 512;" xml:space="preserve">
<style type="text/css">
	.st0{fill:#FD683E;}
	.st1{fill:#FFE497;}
	.st2{fill:#FDE5BD;}
	.st3{fill:#3691BB;}
	.st4{fill:#FCB30B;}
	.st5{fill:#FC6930;}
	.st6{fill:#C5D3DD;}
	.st7{fill:#D9E7EC;}
	.st8{fill:#B6C4CF;}
	.st9{fill:#92C927;}
	.st10{fill:#B0D87B;}
	.st11{fill:#D0E8B0;}
</style>
<path class="st0" d="M158.1,492C68.5,453.7,5.7,364.6,6,260.9C6.4,123.2,119.1,11,256.8,11.2c138.1,0.2,249.9,112.2,249.9,250.4
	c0,51.3-15.4,99-41.9,138.7c0,0,0,0.1-0.1,0.1c-4.4,6.5-11.8,10.4-19.7,10.4H246.3c-37.4,0-67.6,30.3-67.6,67.6
	C178.7,489.1,167.9,496.1,158.1,492z"/>
<path class="st1" d="M240.3,306.6h-184c-8.5,0-15.3-6.9-15.3-15.3V15.3C41,6.9,47.9,0,56.3,0h184c8.5,0,15.3,6.9,15.3,15.3v275.9
	C255.6,299.7,248.8,306.6,240.3,306.6z"/>
<path class="st2" d="M240.3,306.6H97.2c-8.5,0-15.3-6.9-15.3-15.3V15.3C81.9,6.9,88.7,0,97.2,0h143.1c8.5,0,15.3,6.9,15.3,15.3
	v275.9C255.6,299.7,248.8,306.6,240.3,306.6z"/>
<path class="st3" d="M137.8,306.6H97V0h40.9V306.6z"/>
<path class="st4" d="M209.4,20.4c11.3,0,20.4,9.2,20.4,20.4s-9.2,20.4-20.4,20.4c-11.3,0-20.4-9.1-20.4-20.4S198.1,20.4,209.4,20.4z
	"/>
<path class="st5" d="M209.4,51.1c11.3,0,20.4,9.2,20.4,20.4c0,11.3-9.2,20.4-20.4,20.4c-11.3,0-20.4-9.2-20.4-20.4
	C188.9,60.2,198.1,51.1,209.4,51.1z"/>
<path class="st6" d="M464.9,400.3C420,467.6,343.4,512,256.4,512c-34.8,0-68-7.1-98.1-20V158.4c0-8.5,6.9-15.3,15.3-15.3h275.9
	c8.5,0,15.3,6.9,15.3,15.3V400.3z"/>
<path class="st7" d="M464.9,400.3C420,467.6,343.4,512,256.4,512c-21.9,0-43.1-2.8-63.4-8.1V158.4c0-8.5,6.9-15.3,15.3-15.3h241.2
	c8.5,0,15.3,6.9,15.3,15.3V400.3z"/>
<path class="st8" d="M338.1,178.8H285c-5.6,0-10.2-4.6-10.2-10.2s4.6-10.2,10.2-10.2h53.1c5.6,0,10.2,4.6,10.2,10.2
	S343.8,178.8,338.1,178.8z"/>
<path class="st9" d="M430.1,209.5v232.4c-45,43.4-106.3,70.1-173.7,70.1c-21.9,0-43.1-2.8-63.4-8.1V209.5c0-8.5,6.9-15.3,15.3-15.3
	h206.4C423.2,194.2,430.1,201,430.1,209.5z"/>
<path class="st10" d="M340.9,324.8h-11v-31.7h25.6c10.2,0,18.4-8.2,18.4-18.4c0-10.2-8.2-18.4-18.4-18.4H330v-1.2
	c0-10.2-8.2-18.4-18.4-18.4c-10.2,0-18.4,8.2-18.4,18.4v1.2h-11c-29,0-52.6,23.6-52.6,52.6s23.6,52.6,52.6,52.6h11v31.7h-25.6
	c-10.2,0-18.4,8.2-18.4,18.4s8.2,18.4,18.4,18.4h25.6v1.2c0,10.2,8.2,18.4,18.4,18.4c10.2,0,18.4-8.2,18.4-18.4v-1.2h11
	c29,0,52.6-23.6,52.6-52.6C393.5,348.4,369.9,324.8,340.9,324.8z M282.2,324.8c-8.7,0-15.8-7.1-15.8-15.8s7.1-15.8,15.8-15.8h11
	v31.7H282.2z M340.9,393.3h-11v-31.7h11c8.7,0,15.8,7.1,15.8,15.8C356.8,386.2,349.6,393.3,340.9,393.3z"/>
<path class="st11" d="M393.5,377.5c0,2.6-0.2,5.1-0.6,7.6c-8,2.2-16.5,3.3-25.2,3.3c-4.9,0-9.7-0.4-14.4-1.1
	c2.1-2.7,3.4-6.1,3.4-9.8c0-8.7-7.1-15.8-15.8-15.8h-11v19.1c-25-10.6-44.6-31.3-53.7-57.1c1.8,0.8,3.9,1.2,6,1.2h11v-31.7h-11
	c-4.4,0-8.4,1.8-11.3,4.8c-0.1-2.2-0.2-4.4-0.2-6.6c0-12.2,2.3-23.9,6.4-34.7c1.7-0.2,3.4-0.3,5.2-0.3h11v-1.2
	c0-10.2,8.2-18.4,18.4-18.4c10.2,0,18.4,8.2,18.4,18.4v1.2h25.6c10.2,0,18.4,8.2,18.4,18.4s-8.2,18.4-18.4,18.4H330v31.7h11
	C369.9,324.8,393.5,348.4,393.5,377.5z"/>
</svg>
