<?xml version="1.0" encoding="utf-8"?>
<!-- Generator: Adobe Illustrator 25.2.1, SVG Export Plug-In . SVG Version: 6.00 Build 0)  -->
<svg version="1.1" id="Layer_1" xmlns="http://www.w3.org/2000/svg" xmlns:xlink="http://www.w3.org/1999/xlink" x="0px" y="0px"
	 viewBox="0 0 512 512" style="enable-background:new 0 0 512 512;" xml:space="preserve">
<style type="text/css">
	.st0{fill:#FD683E;}
	.st1{fill:#B6C4CF;}
	.st2{fill:#C5D3DD;}
	.st3{fill:#9FACBA;}
	.st4{fill:#FFF2B4;}
	.st5{fill:#FFC661;}
	.st6{fill:#FFDF8E;}
	.st7{fill:#3691BB;}
	.st8{fill:#FCB30B;}
	.st9{fill:#FC9302;}
	.st10{fill:#FD3980;}
	.st11{fill:#FC5E93;}
	.st12{fill:#FFF5F5;}
</style>
<path class="st0" d="M6,261.6C6,123.3,118.1,11.2,256.4,11.2c138.6,0,251.2,113.4,250.4,252c-0.5,80.3-38.8,151.7-98.1,197.1
	c-10.2,7.8-23.9,9-35.2,3c-34.9-18.5-74.8-29-117.1-29s-82.2,10.5-117.1,29c-11.2,5.9-24.9,4.9-35-2.8C44.5,414.8,6,342.7,6,261.6z"
	/>
<path class="st1" d="M409.7,15.3v444.3c-42.4,32.8-95.5,52.4-153.3,52.4s-110.9-19.6-153.3-52.4V15.3c0-8.5,6.9-15.3,15.3-15.3
	h275.9C402.8,0,409.7,6.9,409.7,15.3z"/>
<path class="st2" d="M409.7,15.3v444.3c-42.4,32.8-95.5,52.4-153.3,52.4c-42.9,0-83.3-10.8-118.5-29.8V15.3
	c0-8.5,6.9-15.3,15.3-15.3h241.2C402.8,0,409.7,6.9,409.7,15.3z"/>
<path class="st3" d="M271.7,485.4c0,8.5-6.9,15.3-15.3,15.3s-15.3-6.9-15.3-15.3s6.9-15.3,15.3-15.3S271.7,477,271.7,485.4z
	 M282.9,15.3h-53.1c-5.6,0-10.2,4.6-10.2,10.2c0,5.6,4.6,10.2,10.2,10.2h53.1c5.6,0,10.2-4.6,10.2-10.2
	C293.2,19.9,288.6,15.3,282.9,15.3z"/>
<path class="st4" d="M359.6,459.9H153.2c-8.5,0-15.3-6.9-15.3-15.3V66.4c0-8.5,6.9-15.3,15.3-15.3h206.4c8.5,0,15.3,6.9,15.3,15.3
	v378.1C374.9,453,368.1,459.9,359.6,459.9z"/>
<path class="st5" d="M275.8,270.8H163.4c-2.8,0-5.1-2.3-5.1-5.1v-10.2c0-2.8,2.3-5.1,5.1-5.1h112.4c2.8,0,5.1,2.3,5.1,5.1v10.2
	C280.9,268.5,278.6,270.8,275.8,270.8z M234.9,306.6v-10.2c0-2.8-2.3-5.1-5.1-5.1h-66.4c-2.8,0-5.1,2.3-5.1,5.1v10.2
	c0,2.8,2.3,5.1,5.1,5.1h66.4C232.6,311.7,234.9,309.4,234.9,306.6z M270.7,380.7v-10.2c0-2.8-2.3-5.1-5.1-5.1H163.4
	c-2.8,0-5.1,2.3-5.1,5.1v10.2c0,2.8,2.3,5.1,5.1,5.1h102.2C268.4,385.8,270.7,383.5,270.7,380.7z M234.9,421.6v-10.2
	c0-2.8-2.3-5.1-5.1-5.1h-66.4c-2.8,0-5.1,2.3-5.1,5.1v10.2c0,2.8,2.3,5.1,5.1,5.1h66.4C232.6,426.7,234.9,424.4,234.9,421.6z"/>
<path class="st6" d="M168.5,92c-5.6,0-10.2-4.6-10.2-10.2s4.6-10.2,10.2-10.2s10.2,4.6,10.2,10.2S174.1,92,168.5,92z M209.4,81.8
	c0-5.6-4.6-10.2-10.2-10.2s-10.2,4.6-10.2,10.2S193.5,92,199.1,92S209.4,87.4,209.4,81.8z M352.4,81.8c0-5.6-4.6-10.2-10.2-10.2
	S332,76.1,332,81.8S336.6,92,342.2,92S352.4,87.4,352.4,81.8z"/>
<path class="st7" d="M288.1,219.7h-63.4c-28.2,0-51.1-22.9-51.1-51.1c0-2.8,2.3-5.1,5.1-5.1H334c2.8,0,5.1,2.3,5.1,5.1
	C339.2,196.8,316.3,219.7,288.1,219.7z"/>
<path class="st8" d="M192.8,144.6l56.3-56.3c4-4,10.5-4,14.5,0l56.3,56.3c3.2,3.2,0.9,8.7-3.6,8.7H196.5
	C191.9,153.3,189.6,147.8,192.8,144.6z"/>
<path class="st9" d="M234.9,135.4c0,4.2-3.4,7.7-7.7,7.7s-7.7-3.4-7.7-7.7c0-4.2,3.4-7.7,7.7-7.7S234.9,131.2,234.9,135.4z
	 M247.7,132.9c-4.2,0-7.7,3.4-7.7,7.7c0,4.2,3.4,7.7,7.7,7.7c4.2,0,7.7-3.4,7.7-7.7C255.4,136.3,251.9,132.9,247.7,132.9z
	 M268.1,107.3c-4.2,0-7.7,3.4-7.7,7.7c0,4.2,3.4,7.7,7.7,7.7c4.2,0,7.7-3.4,7.7-7.7C275.8,110.7,272.4,107.3,268.1,107.3z"/>
<path class="st10" d="M393.3,281c0,25.4-20.6,46-46,46s-46-20.6-46-46s20.6-46,46-46S393.3,255.6,393.3,281z M347.3,350
	c-25.4,0-46,20.6-46,46s20.6,46,46,46s46-20.6,46-46S372.7,350,347.3,350z"/>
<path class="st11" d="M393.3,281c0,20.2-13,37.4-31.2,43.5C344,318.4,331,301.2,331,281c0-20.2,13-37.4,31.2-43.5
	C380.3,243.7,393.3,260.8,393.3,281z M362.2,352.5C344,358.6,331,375.8,331,396s13,37.4,31.2,43.5c18.1-6.2,31.2-23.3,31.2-43.5
	S380.3,358.6,362.2,352.5z"/>
<path class="st12" d="M321.8,281c0-4.2,3.4-7.7,7.7-7.7h10.2v-10.2c0-4.2,3.4-7.7,7.7-7.7c4.2,0,7.7,3.4,7.7,7.7v10.2h10.2
	c4.2,0,7.7,3.4,7.7,7.7c0,4.2-3.4,7.7-7.7,7.7H355v10.2c0,4.2-3.4,7.7-7.7,7.7c-4.2,0-7.7-3.4-7.7-7.7v-10.2h-10.2
	C325.2,288.7,321.8,285.3,321.8,281z M365.2,388.3H355v-10.2c0-4.2-3.4-7.7-7.7-7.7c-4.2,0-7.7,3.4-7.7,7.7v10.2h-10.2
	c-4.2,0-7.7,3.4-7.7,7.7s3.4,7.7,7.7,7.7h10.2v10.2c0,4.2,3.4,7.7,7.7,7.7c4.2,0,7.7-3.4,7.7-7.7v-10.2h10.2c4.2,0,7.7-3.4,7.7-7.7
	S369.4,388.3,365.2,388.3z"/>
</svg>
