<?xml version="1.0" encoding="utf-8"?>
<!-- Generator: Adobe Illustrator 25.2.1, SVG Export Plug-In . SVG Version: 6.00 Build 0)  -->
<svg version="1.1" id="Layer_1" xmlns="http://www.w3.org/2000/svg" xmlns:xlink="http://www.w3.org/1999/xlink" x="0px" y="0px"
	 viewBox="0 0 512 512" style="enable-background:new 0 0 512 512;" xml:space="preserve">
<style type="text/css">
	.st0{fill:#FD683E;}
	.st1{fill:#FFE4DE;}
	.st2{fill:#AD391E;}
	.st3{fill:#4F1204;}
	.st4{fill:#992E14;}
	.st5{fill:#3F0C21;}
	.st6{fill:#FD3980;}
	.st7{fill:#FC9302;}
	.st8{fill:#FCB30B;}
	.st9{fill:#FC6930;}
	.st10{fill:#F8BB5E;}
	.st11{fill:#FFDF8E;}
	.st12{fill:#FFF2B4;}
	.st13{fill:#FFF5F5;}
</style>
<path class="st0" d="M78.9,427.6c-42-44.8-67.7-105-67.7-171.2C11.2,118.3,123,6.3,261.1,6C399.8,5.7,511.7,117.1,512,255.9
	c0.1,66.3-25.5,126.6-67.5,171.5c-10.1,10.8-24.3,17-39.1,17H117.9C103.1,444.4,89,438.3,78.9,427.6z"/>
<path class="st1" d="M163.5,86.7c0-5.6-4.6-10.2-10.2-10.2h-25.5c-8.5,0-15.3-6.9-15.3-15.3c0-2.6,0.7-5,1.8-7.2
	c3.8-2.8,7.7-5.4,11.6-8c0.6-0.1,1.3-0.1,1.9-0.1h214.6c8.5,0,15.3,6.9,15.3,15.3c0,8.5-6.9,15.3-15.3,15.3h-138
	c-5.6,0-10.2,4.6-10.2,10.2S198.7,97,204.4,97h56.2c8.5,0,15.3,6.9,15.3,15.3c0,8.5-6.9,15.3-15.3,15.3H46.9
	c6.5-10.8,13.7-21,21.7-30.7h84.7C158.9,97,163.5,92.4,163.5,86.7z M378.1,209.4h129.4c-2-10.5-4.6-20.7-7.9-30.7H301.5
	c-8.5,0-15.3,6.9-15.3,15.3s6.9,15.3,15.3,15.3H327c5.6,0,10.2,4.6,10.2,10.2s-4.6,10.2-10.2,10.2H219.7c-8.5,0-15.3,6.9-15.3,15.3
	s6.9,15.3,15.3,15.3h214.6c8.5,0,15.3-6.9,15.3-15.3s-6.9-15.3-15.3-15.3h-56.2c-5.6,0-10.2-4.6-10.2-10.2S372.5,209.4,378.1,209.4z
	"/>
<path class="st2" d="M447.6,424c-45.8,50.8-112.2,82.8-186,82.8s-140.2-32-186-82.8H447.6z"/>
<path class="st3" d="M224.8,459.8V470c0,2.8-2.3,5.1-5.1,5.1h-80.1c-10.8-6.1-21.2-12.9-30.9-20.4h111
	C222.5,454.6,224.8,456.9,224.8,459.8z M270.8,454.6c-2.8,0-5.1,2.3-5.1,5.1V470c0,2.8,2.3,5.1,5.1,5.1h112.8
	c10.8-6.1,21.2-12.9,30.9-20.4H270.8z"/>
<path class="st4" d="M388.3,81.6v40.9c0,2.8-2.3,5.1-5.1,5.1c-2.8,0-5.1-2.3-5.1-5.1V96.1c-1.6,0.6-3.3,0.9-5.1,0.9h-15.3
	c-5.6,0-10.2-4.6-10.2-10.2V76.5c0-5.6,4.6-10.2,10.2-10.2H373C381.5,66.3,388.3,73.2,388.3,81.6z"/>
<path class="st5" d="M512,342.7v30.7c0,11.3-9.2,20.4-20.4,20.4H123.7c-5.6,0-10.2-4.6-10.2-10.2V353H82.8
	c-5.6,0-10.2-4.6-10.2-10.2v-61.3c0-5.6,4.6-10.2,10.2-10.2h172.7c5.6,0,10.2,4.6,10.2,10.2v40.9c0,11.3,9.2,20.4,20.4,20.4h51.1
	c11.3,0,20.4-9.2,20.4-20.4V137.8c0-5.6,4.6-10.2,10.2-10.2h10.2c5.6,0,10.2,4.6,10.2,10.2V169c22.6,0,40.9,18.3,40.9,40.9v32.5
	C476.4,251.5,512,292.9,512,342.7z"/>
<path class="st6" d="M357.7,127.6h30.7v214.6h-30.7V127.6z M92,271.2h-9.2c-5.6,0-10.2,4.6-10.2,10.2V353c0,5.6,4.6,10.2,10.2,10.2
	H92c5.6,0,10.2-4.6,10.2-10.2v-71.5C102.2,275.8,97.6,271.2,92,271.2z M510,322.3h-39.9c-5.6,0-10.2,4.6-10.2,10.2
	s4.6,10.2,10.2,10.2H511v-14.5C510.7,326.3,510.4,324.3,510,322.3z"/>
<path class="st4" d="M388.3,128.1v20.4h-81.8c-5.6,0-10.2-4.6-10.2-10.2v-10.2c0-5.6,4.6-10.2,10.2-10.2h71.5
	C383.8,117.9,388.3,122.5,388.3,128.1z M292.3,250.8H40.9v20.4c0,11.3,9.1,20.4,20.4,20.4h231c8.5,0,15.3-6.9,15.3-15.3v-10.2
	C307.6,257.6,300.7,250.8,292.3,250.8z"/>
<path class="st3" d="M337.2,148.6h-30.7c-5.6,0-10.2-4.6-10.2-10.2v-10.2c0-5.6,4.6-10.2,10.2-10.2h30.7c-5.6,0-10.2,4.6-10.2,10.2
	v10.2C327,144,331.6,148.6,337.2,148.6z M71.5,271.2v-20.4H40.9v20.4c0,11.3,9.1,20.4,20.4,20.4H92
	C80.7,291.6,71.5,282.5,71.5,271.2z"/>
<path class="st7" d="M0,255.9V51.5C0,43,6.9,36.1,15.3,36.1h204.4c8.5,0,15.3,6.9,15.3,15.3v204.4c0,8.5-6.9,15.3-15.3,15.3H15.3
	C6.9,271.2,0,264.3,0,255.9z"/>
<path class="st8" d="M29.6,255.9V51.5c0-8.5,6.9-15.3,15.3-15.3h174.8c8.5,0,15.3,6.9,15.3,15.3v204.4c0,8.5-6.9,15.3-15.3,15.3H45
	C36.5,271.2,29.6,264.3,29.6,255.9z"/>
<path class="st9" d="M117.5,58.5c52.6,0,95.2,42.6,95.2,95.2s-42.6,95.2-95.2,95.2c-52.6,0-95.2-42.6-95.2-95.2
	S64.9,58.5,117.5,58.5z"/>
<path class="st10" d="M470.1,291.6h20.4v20.4h-20.4c-5.6,0-10.2-4.6-10.2-10.2S464.5,291.6,470.1,291.6z"/>
<path class="st11" d="M507.3,312.1h-16.8c-5.6,0-10.2-4.6-10.2-10.2s4.6-10.2,10.2-10.2h7.8C502,298,505.1,304.9,507.3,312.1z"/>
<path class="st8" d="M383.2,321.8c31,0,56.2,25.2,56.2,56.2s-25.2,56.2-56.2,56.2S327,409,327,378S352.2,321.8,383.2,321.8z
	 M81.8,378c0,31,25.2,56.2,56.2,56.2s56.2-25.2,56.2-56.2S169,321.8,138,321.8S81.8,346.9,81.8,378z"/>
<path class="st12" d="M408.8,378c0,14.1-11.4,25.5-25.5,25.5s-25.6-11.4-25.6-25.5s11.4-25.6,25.6-25.6S408.8,363.9,408.8,378z
	 M138,352.4c-14.1,0-25.6,11.4-25.6,25.6s11.4,25.5,25.6,25.5s25.5-11.4,25.5-25.5S152.1,352.4,138,352.4z M115.9,112.1
	c0-12.2-9.9-22.2-22.2-22.2h-7.8c-12.2,0-22.2,9.9-22.2,22.2v19.4c0,8.1,4.3,15.2,10.8,19c3.4,2,5.5,5.6,5.5,9.6v53.1
	c0,2.3,1.9,4.2,4.2,4.2h11.1c2.3,0,4.2-1.9,4.2-4.2v-53.1c0-3.9,2.1-7.6,5.5-9.6c6.5-3.9,10.8-10.9,10.8-19V112.1z M167.1,89.9h-2.8
	c-2.3,0-4.2,1.9-4.2,4.2V121c0,1.2-1,2.2-2.2,2.2c-1.2,0-2.2-1-2.2-2.2V94.1c0-2.3-1.9-4.2-4.2-4.2h-2.8c-2.3,0-4.2,1.9-4.2,4.2V121
	c0,1.2-1,2.2-2.2,2.2c-1.2,0-2.2-1-2.2-2.2V94.1c0-2.3-1.9-4.2-4.2-4.2h-2.8c-2.3,0-4.2,1.9-4.2,4.2v35.7c0,6.4,2.9,12.2,7.4,16.1
	c2.5,2.1,3.9,5.2,3.9,8.4v58.9c0,2.3,1.9,4.2,4.2,4.2h11.1c2.3,0,4.2-1.9,4.2-4.2v-58.9c0-3.3,1.4-6.3,3.9-8.4
	c4.6-3.9,7.4-9.6,7.4-16.1V94.1C171.3,91.8,169.4,89.9,167.1,89.9z M413.9,107.7h-20.4c-8.5,0-15.3,6.9-15.3,15.3v20.4
	c0,8.5,6.9,15.3,15.3,15.3h20.4c2.8,0,5.1-2.3,5.1-5.1v-40.9C419,110,416.7,107.7,413.9,107.7z"/>
<path class="st13" d="M408.8,378c0,10.5-6.3,19.5-15.3,23.4c-9-3.9-15.3-12.9-15.3-23.4s6.3-19.5,15.3-23.4
	C402.5,358.5,408.8,367.5,408.8,378z M148.2,354.6c-9,3.9-15.3,12.9-15.3,23.4s6.3,19.5,15.3,23.4c9-3.9,15.3-12.9,15.3-23.4
	S157.2,358.5,148.2,354.6z M393.5,138.3h20.4c2.8,0,5.1-2.3,5.1-5.1v-20.4c0-2.8-2.3-5.1-5.1-5.1h-20.4c-8.5,0-15.3,6.9-15.3,15.3
	C378.1,131.5,385,138.3,393.5,138.3z"/>
</svg>
