<?xml version="1.0" encoding="utf-8"?>
<!-- Generator: Adobe Illustrator 25.2.1, SVG Export Plug-In . SVG Version: 6.00 Build 0)  -->
<svg version="1.1" id="Layer_1" xmlns="http://www.w3.org/2000/svg" xmlns:xlink="http://www.w3.org/1999/xlink" x="0px" y="0px"
	 viewBox="0 0 512 512" style="enable-background:new 0 0 512 512;" xml:space="preserve">
<style type="text/css">
	.st0{fill:#FD683E;}
	.st1{fill:#FFF2B4;}
	.st2{fill:#FFDEA4;}
	.st3{fill:#FFEEE9;}
	.st4{fill:#FFCFC0;}
	.st5{fill:#69B21B;}
</style>
<path class="st0" d="M6,261.6C6,123.5,117.8,11.5,255.8,11.2c136.8-0.3,248,108.2,250.9,245c1.8,83.2-37.1,157.4-98.1,204.2
	c-42.2-32.4-95-51.6-152.2-51.6c-52.4,0-101,16.1-141.2,43.6c-6.9,4.7-16.1,4.2-22.4-1.2C39.6,405.2,6,337.4,6,261.6z"/>
<path class="st1" d="M414.1,184.5L315.3,19.8C307.9,7.5,294.6,0,280.2,0h-47.7c-14.4,0-27.7,7.5-35.1,19.8L98.7,184.5
	c-3.8,6.4-5.8,13.6-5.8,21v245.7c43.9,37.9,101,60.8,163.5,60.8s119.6-22.9,163.5-60.8V205.5C419.9,198.1,417.9,190.8,414.1,184.5z
	 M222.2,181.8l29.2-138.7c1.1-5.4,8.9-5.4,10,0l29.2,138.7c1.3,6.4-3.5,12.3-10,12.3h-48.4C225.7,194.2,220.8,188.2,222.2,181.8z"/>
<path class="st2" d="M267.3,0c-14.4,0-27.7,7.5-35.1,19.8l-98.8,164.6c-3.8,6.4-5.8,13.6-5.8,21v270.9
	c-12.3-7.4-23.9-15.8-34.7-25.1V205.5c0-7.4,2-14.7,5.8-21l98.8-164.6C204.8,7.5,218.2,0,232.5,0H267.3z"/>
<path class="st3" d="M260.5,414.9c0-53.6,43.5-97.1,97.1-97.1s97.1,43.5,97.1,97.1S411.2,512,357.6,512
	C303.9,512,260.5,468.5,260.5,414.9z"/>
<path class="st4" d="M454.6,414.9c0,45.1-30.8,83.1-72.6,94c-41.7-10.9-72.6-48.8-72.6-94s30.8-83.1,72.6-94
	C423.8,331.8,454.6,369.8,454.6,414.9z"/>
<path class="st5" d="M453.6,350.9L334,470.6c-7.7,7.7-20.2,7.7-27.9,0l0,0c-7.7-7.7-7.7-20.2,0-27.9L425.7,323
	c7.7-7.7,20.2-7.7,27.9,0l0,0C461.3,330.7,461.3,343.2,453.6,350.9z"/>
<path class="st5" d="M425.7,470.6L306,350.9c-7.7-7.7-7.7-20.2,0-27.9l0,0c7.7-7.7,20.2-7.7,27.9,0l119.6,119.6
	c7.7,7.7,7.7,20.2,0,27.9l0,0C445.9,478.3,433.4,478.3,425.7,470.6z"/>
</svg>
