<?xml version="1.0" encoding="utf-8"?>
<!-- Generator: Adobe Illustrator 25.2.3, SVG Export Plug-In . SVG Version: 6.00 Build 0)  -->
<svg version="1.1" id="Layer_1" xmlns="http://www.w3.org/2000/svg" xmlns:xlink="http://www.w3.org/1999/xlink" x="0px" y="0px"
	 viewBox="0 0 512 512" style="enable-background:new 0 0 512 512;" xml:space="preserve">
<style type="text/css">
	.st0{fill:#5156BE;}
	.st1{fill:#CECECE;}
	.st2{fill:#BFBFBF;}
	.st3{fill:#F8F6F6;}
	.st4{fill:#E2E2E2;}
	.st5{fill:#FE646F;}
	.st6{fill:#FD4755;}
	.st7{fill:#FED2A4;}
	.st8{fill:#FFBD86;}
	.st9{fill:#FFE5C2;}
	.st10{fill:#9C9C9C;}
	.st11{fill:#838383;}
	.st12{fill:#26A6FE;}
	.st13{fill:#0593FC;}
	.st14{fill:#FFFFFF;}
	.st15{fill:#EAF6FF;}
</style>
<g>
	<path class="st0" d="M256,22C120.7,22,11,131.7,11,267c0,71.1,30.3,135.1,78.7,179.9l1-0.4V425c0-2.5,2-4.5,4.5-4.5h119.6
		c2.5,0,4.5,2,4.5,4.5v83.2l1,1.2c11.7,1.7,23.6,2.6,35.7,2.6c135.3,0,245-109.7,245-245S391.3,22,256,22z"/>
	<g>
		<g>
			<path class="st1" d="M301.9,3v43l2.4,1h44.1l2.5-1V3c0-1.7-1.3-3-3-3h-42.9C303.2,0,301.9,1.3,301.9,3z"/>
		</g>
		<path class="st2" d="M322.1,3c0-1.7,1.3-3,3-3h-20.2c-1.7,0-3,1.3-3,3v43h20.2V3z"/>
		<path class="st3" d="M301.9,46h48.9v94h-48.9V46z"/>
		<path class="st4" d="M301.9,46h20.2v94h-20.2V46z"/>
		<g>
			<g>
				<g>
					<path class="st5" d="M88,42.4L71.8,70.5C63.4,85,73.9,103,90.5,103s27.1-18,18.7-32.5L93,42.4C91.9,40.5,89.1,40.5,88,42.4z"/>
				</g>
				<path class="st6" d="M87.9,70.5l10.7-18.5L93,42.4c-1.1-1.9-3.9-1.9-5,0L71.8,70.5C63.4,85,73.9,103,90.5,103
					c2.9,0,5.6-0.6,8.1-1.5C87,96.8,81.1,82.4,87.9,70.5z"/>
			</g>
			<g>
				<g>
					<g>
						<path class="st7" d="M200.8,333.8v-43.1h-31.9v-15.4c0-4.2-3.4-7.7-7.7-7.7H81.9c-12.7,0-23.1,10.3-23.1,23.1v62
							c0,10.1,4,19.8,11.1,27l24,24.3c4.6,4.7,7.9,10.4,9.6,16.6h103c1.8-6.2,5.1-12,9.8-16.6l6.5-6.5
							C209,379.9,200.8,357.7,200.8,333.8L200.8,333.8z"/>
						<path class="st7" d="M200.8,191.7c-4.2-5.3-10.8-8.8-18.1-8.8c-12.7,0-23.1,10.3-23.1,23.1v-8.8c0-12.7-10.3-23.1-23.1-23.1
							c-12.7,0-23.1,10.3-23.1,23.1v-59.5c0-12.7-10.3-23.1-23.1-23.1s-23.1,10.3-23.1,23.1v136.4c3.9-3.4,8.9-5.4,14.4-5.4h79.3
							c3.7,0,6.7,3,6.7,6.7v16.3c0,4.3-1.3,8.2-3.4,11.5c4.2,5.5,10.8,9,18.3,9c7.3,0,13.9-3.4,18.1-8.8L200.8,191.7L200.8,191.7z"
							/>
						<g>
							<path class="st8" d="M136.4,267.6v-70.5c0-8.6,4.7-16,11.6-20c-3.4-1.9-7.3-3-11.4-3c-12.7,0-23.1,10.3-23.1,23.1v70.5
								L136.4,267.6L136.4,267.6z"/>
						</g>
						<g>
							<path class="st8" d="M182.6,289.2V206c0-8.5,4.7-16,11.6-20c-3.4-1.9-7.3-3.1-11.5-3.1c-12.7,0-23.1,10.3-23.1,23.1v61.7h1.5
								c4.2,0,7.7,3.4,7.7,7.7v15.4v1c0,4.6-1.4,8.8-3.8,12.4c4.2,5,10.5,8.2,17.6,8.2c4.2,0,8.1-1.1,11.5-3.1
								C187.3,305.1,182.6,297.7,182.6,289.2L182.6,289.2z"/>
							<path class="st8" d="M81.9,267.6h8.2v-130c0-8.6,4.7-16.1,11.7-20.1c-3.4-1.9-7.2-3-11.3-3c-12.7,0-23.1,10.3-23.1,23.1
								v135.1C71.4,269.6,76.4,267.6,81.9,267.6L81.9,267.6z"/>
						</g>
					</g>
					<g>
						<path class="st5" d="M214.8,419.5H95.2c-3,0-5.5,2.5-5.5,5.5v21.8c35.4,32.8,80.6,55.2,130.7,62.6V425
							C220.3,422,217.8,419.5,214.8,419.5L214.8,419.5z"/>
					</g>
					<g>
						<path class="st6" d="M89.7,425v21.8c13.2,12.2,27.7,23,43.4,32.1V425c0-3,2.5-5.5,5.5-5.5H95.2C92.1,419.5,89.7,422,89.7,425z
							"/>
					</g>
				</g>
				<g>
					<g>
						<circle class="st6" cx="90.5" cy="139" r="8.8"/>
					</g>
				</g>
				<g>
					<path class="st9" d="M161.2,267.6H81.9c-12.7,0-23.1,10.3-23.1,23.1v62c0,10.1,4,19.8,11.1,27l24,24.3h9.4
						c24.1,0,43.6-19.1,43.5-43.2c0-14-7.9-26.9-20.1-33.7l-23.9-13.3h44c12.2,0,22.1-9.9,22.1-22.1v-1v-15.4
						C168.9,271.1,165.4,267.6,161.2,267.6L161.2,267.6z"/>
				</g>
			</g>
		</g>
		<g>
			<g>
				<path class="st10" d="M348.8,437.9h-44.8c-57.5,0-104.1-46.6-104.1-104.1V191.1c0-28.8,23.3-52.1,52.1-52.1h149
					c28.8,0,52.1,23.3,52.1,52.1v142.7C452.9,391.3,406.3,437.9,348.8,437.9z"/>
			</g>
			<path class="st11" d="M225.8,333.8V191.1c0-14.4,11.7-26,26-26H269c9-15.6,25.8-26,45.1-26h-62.2c-28.8,0-52.1,23.3-52.1,52.1
				v142.7c0,57.5,46.6,104.1,104.1,104.1h44.8c2.9,0,5.8-0.1,8.7-0.4c-23.2-1.9-44.2-11.4-60.6-26
				C257.1,408,225.8,374.4,225.8,333.8L225.8,333.8z"/>
			<g>
				<path class="st1" d="M303.9,411.9c-43.1,0-78.1-35-78.1-78.1V191.1c0-14.4,11.7-26,26-26h149c14.4,0,26,11.7,26,26v142.7
					c0,43.1-35,78.1-78.1,78.1L303.9,411.9z"/>
			</g>
			<path class="st2" d="M278,333.8v-13.2h-20.9c-5.8,0-10.4-4.7-10.4-10.4V207.3c0-5.8,4.7-10.4,10.4-10.4H278v-5.8
				c0-14.4,11.7-26,26-26h-52.1c-14.4,0-26,11.7-26,26v142.7c0,43.1,35,78.1,78.1,78.1h44.8c1.2,0,2.4,0,3.6-0.1
				C311,409.9,278,375.6,278,333.8L278,333.8z"/>
			<g>
				<g>
					<path class="st5" d="M282.1,379.6H279c-11.5,0-20.8-9.3-20.8-20.8c0-11.5,9.3-20.8,20.8-20.8h3.1c11.5,0,20.8,9.3,20.8,20.8
						C302.9,370.3,293.6,379.6,282.1,379.6z"/>
				</g>
				<path class="st6" d="M279,358.8c0-8.3,4.9-15.5,12-18.8c-2.7-1.3-5.7-2-8.9-2H279c-11.5,0-20.8,9.3-20.8,20.8
					c0,11.5,9.3,20.8,20.8,20.8h3.1c3.2,0,6.2-0.7,8.9-2C283.9,374.3,279,367.1,279,358.8z"/>
				<g>
					<path class="st12" d="M373.8,379.6h-3.1c-11.5,0-20.8-9.3-20.8-20.8c0-11.5,9.3-20.8,20.8-20.8h3.1c11.5,0,20.8,9.3,20.8,20.8
						C394.6,370.3,385.3,379.6,373.8,379.6z"/>
				</g>
				<path class="st13" d="M370.2,358.8c0-8.4,5-15.6,12.2-18.9c-2.6-1.2-5.6-1.9-8.6-1.9h-3.1c-11.5,0-20.8,9.3-20.8,20.8
					c0,11.5,9.3,20.8,20.8,20.8h3.1c3.1,0,6-0.7,8.6-1.9C375.2,374.4,370.2,367.2,370.2,358.8z"/>
			</g>
			<g>
				<path class="st14" d="M395.6,320.5H257.1c-5.8,0-10.4-4.7-10.4-10.4V207.3c0-5.8,4.7-10.4,10.4-10.4h138.6
					c5.8,0,10.4,4.7,10.4,10.4v102.8C406.1,315.9,401.4,320.5,395.6,320.5L395.6,320.5z"/>
			</g>
			<g>
				<path class="st15" d="M288.4,310.1V207.3c0-5.8,4.7-10.4,10.4-10.4h-41.7c-5.8,0-10.4,4.7-10.4,10.4v102.8
					c0,5.8,4.7,10.4,10.4,10.4h41.7C293.1,320.5,288.4,315.9,288.4,310.1z"/>
			</g>
		</g>
		<g>
			<g>
				<circle class="st12" cx="388.4" cy="303.4" r="7.5"/>
			</g>
			<g>
				<circle class="st12" cx="264.4" cy="303.4" r="7.5"/>
			</g>
			<g>
				<circle class="st6" cx="264.4" cy="282.4" r="7.5"/>
			</g>
		</g>
		<g>
			<path class="st0" d="M311.9,222.4h-14.8c-6.9,0-12.4,5.6-12.4,12.4V253c0,6.9,5.6,12.4,12.4,12.4h12.3v13h-15
				c-4.1,0-7.5,3.4-7.5,7.5s3.4,7.5,7.5,7.5h17.6c6.9,0,12.4-5.6,12.4-12.4v-46.1C324.4,228,318.8,222.4,311.9,222.4L311.9,222.4z
				 M309.4,250.4h-9.7v-13h9.7V250.4z"/>
			<g>
				<path class="st0" d="M355.6,293.4h-14.8c-6.9,0-12.4-5.6-12.4-12.4v-46.1c0-6.9,5.6-12.4,12.4-12.4h14.8
					c6.9,0,12.4,5.6,12.4,12.4V281C368.1,287.8,362.5,293.4,355.6,293.4z M343.4,278.4h9.7v-41h-9.7V278.4z"/>
			</g>
		</g>
	</g>
</g>
</svg>
