<?xml version="1.0" encoding="utf-8"?>
<!-- Generator: Adobe Illustrator 25.2.3, SVG Export Plug-In . SVG Version: 6.00 Build 0)  -->
<svg version="1.1" id="Capa_1" xmlns="http://www.w3.org/2000/svg" xmlns:xlink="http://www.w3.org/1999/xlink" x="0px" y="0px"
	 viewBox="0 0 512 512" style="enable-background:new 0 0 512 512;" xml:space="preserve">
<style type="text/css">
	.st0{fill:#5156BE;}
	.st1{fill:#E6F0F2;}
	.st2{fill:#FFF5F5;}
	.st3{fill:#CC295F;}
	.st4{fill:#FF4D4D;}
	.st5{fill:#FF9580;}
</style>
<g>
	<path class="st0" d="M437,75C388.7,26.6,324.4,0,256,0l-20,259l20,253c68.4,0,132.7-26.6,181-75c48.4-48.4,75-112.6,75-181
		S485.4,123.3,437,75L437,75z"/>
	<path class="st0" d="M75,75C26.6,123.3,0,187.6,0,256s26.6,132.7,75,181c48.4,48.4,112.6,75,181,75V0C187.6,0,123.3,26.6,75,75z"/>
	<path class="st1" d="M256,31l-27.1,229.1L256,481c124.1,0,225-100.9,225-225S380.1,31,256,31z"/>
	<path class="st2" d="M31,256c0,124.1,100.9,225,225,225V31C131.9,31,31,131.9,31,256z"/>
	<circle class="st3" cx="369.1" cy="329.4" r="67.9"/>
	<circle class="st4" cx="369.1" cy="329.4" r="22.6"/>
	<circle class="st4" cx="142.9" cy="257" r="67.9"/>
	<circle class="st5" cx="142.9" cy="257" r="22.6"/>
	<g>
		<path class="st3" d="M362.4,165.7h45.3v45.3h-45.3V165.7z"/>
		<path class="st3" d="M165.5,379.2h45.3v45.3h-45.3V379.2z"/>
		<path class="st3" d="M301.3,83.5H256l-15.1,22.6l15.1,22.6h45.3V83.5z"/>
	</g>
	<path class="st4" d="M210.7,83.5H256v45.3h-45.3V83.5z"/>
</g>
</svg>
