<?xml version="1.0" encoding="utf-8"?>
<!-- Generator: Adobe Illustrator 25.4.0, SVG Export Plug-In . SVG Version: 6.00 Build 0)  -->
<svg version="1.1" id="Layer_1" xmlns="http://www.w3.org/2000/svg" xmlns:xlink="http://www.w3.org/1999/xlink" x="0px" y="0px"
	 viewBox="0 0 2895.8 1477.3" style="enable-background:new 0 0 2895.8 1477.3;" xml:space="preserve">
<style type="text/css">
	.st0{fill:#FFFFFF;}
	.st1{fill:#F0C542;}
	.st2{fill:#FAD77E;}
	.st3{fill:#FAD784;}
	.st4{fill:#DBAB33;}
	.st5{fill:#ED4C72;}
	.st6{fill:#5156BE;}
	.st7{fill:#B3D7FF;}
	.st8{fill:#D2E6FF;}
	.st9{fill:#FDD247;}
	.st10{fill:#427242;}
	.st11{fill:#538854;}
	.st12{fill:#312E3F;}
	.st13{fill:#F99C73;}
	.st14{fill:#4E49A3;}
	.st15{fill:#1A1A1E;}
	.st16{fill:#5AA0A0;}
	.st17{fill:#8AC4C5;}
	.st18{fill:#F45866;}
	.st19{fill:#D99C31;}
	.st20{fill:#171B23;}
	.st21{fill:#59589E;}
	.st22{fill:#EAEAEA;}
	.st23{fill:#B967A1;}
	.st24{fill:#A34F8F;}
	.st25{fill:#8F3F1F;}
	.st26{fill:#FDC33B;}
	.st27{fill:#C0D838;}
	.st28{fill:#51641E;}
	.st29{fill:#B9CD34;}
</style>
<g id="Background">
</g>
<g>
	<g>
		<g>
			<path class="st0" d="M2236.7,1081c0,0.1,1.6,7,4.9,18.1l-6,1.8c-3.4-11.4-5-18.2-5-18.5L2236.7,1081z M2247.3,1117
				c1.8,5.5,4,11.4,6.3,17.7l-5.9,2.2c-2.4-6.3-4.5-12.3-6.4-17.9L2247.3,1117z M2260.7,1152.1c2.4,5.6,4.9,11.3,7.7,17.1l-5.7,2.7
				c-2.8-5.9-5.4-11.7-7.8-17.3L2260.7,1152.1z M2276.7,1185.9c3,5.6,6,11.1,9.1,16.3l-5.4,3.2c-3.1-5.3-6.3-10.9-9.3-16.6
				L2276.7,1185.9z M2295.7,1218.1c3.5,5.2,7.2,10.3,10.8,15.2l-5,3.8c-3.8-4.9-7.5-10.1-11.1-15.5L2295.7,1218.1z M2318.4,1247.7
				c4.2,4.7,8.5,9.2,12.9,13.4l-4.3,4.5c-4.5-4.3-8.9-8.9-13.3-13.8L2318.4,1247.7z M2345.2,1273.2c4.9,3.9,10,7.4,15.1,10.5
				l-3.3,5.4c-5.3-3.3-10.6-7-15.7-11L2345.2,1273.2z M2376.6,1292.4c5.6,2.5,11.4,4.7,17.2,6.4l-1.8,6c-6-1.8-12.1-4.1-18-6.7
				L2376.6,1292.4z M2411.6,1302.8c6,0.9,12.1,1.4,18.3,1.5l-0.1,6.3c-6.4-0.1-12.9-0.6-19.1-1.6L2411.6,1302.8z M2466.4,1300.2
				l1.4,6.1c-6.4,1.5-12.7,2.6-18.9,3.3l-0.7-6.2C2454.2,1302.7,2460.3,1301.6,2466.4,1300.2z M2501.5,1288.5l2.5,5.8
				c-5.9,2.6-11.9,4.9-17.8,6.9l-2-5.9C2489.9,1293.2,2495.8,1291,2501.5,1288.5z M2534.5,1271.3l3.2,5.4
				c-5.6,3.4-11.1,6.5-16.5,9.3l-2.9-5.6C2523.6,1277.6,2529.1,1274.6,2534.5,1271.3z M2504.5,761.5c1.6,5.5,4.5,11.1,8,15.6l-5,3.9
				c-4.1-5.2-7.2-11.3-9.1-17.7L2504.5,761.5z M2507.7,725.5l4.1,4.8c-4.4,3.8-7.2,8.5-8.4,14.2l-6.1-1.3
				C2498.8,736.2,2502.3,730.2,2507.7,725.5z M2565.4,1250.3l3.8,5c-5.1,3.8-10.3,7.6-15.4,11l-3.5-5.2
				C2555.2,1257.8,2560.4,1254.1,2565.4,1250.3z M2525.9,787.5c5.1,2,10.9,2.8,17.1,2.4l0.5,6.3c-7.2,0.5-13.8-0.4-19.9-2.8
				L2525.9,787.5z M2539.7,714.1c1.7-0.2,3.4-0.3,5.2-0.3l0.3,6.3c-1.7,0.1-3.3,0.2-4.9,0.3c-4.7,0.4-9.1,1.2-13,2.3l-1.7-6
				C2529.9,715.4,2534.6,714.5,2539.7,714.1z M2594.4,1226.7l4.1,4.7c-4.9,4.3-9.7,8.3-14.5,12.2l-4-4.9
				C2584.9,1235,2589.6,1231,2594.4,1226.7z M2576.2,777l3.5,5.2c-5.6,3.8-11.4,7-17.1,9.3l-2.3-5.8
				C2565.6,783.5,2570.9,780.6,2576.2,777z M2621.9,1201.2l4.4,4.5c-4.6,4.5-9.2,8.9-13.7,13.1l-4.3-4.6
				C2612.8,1210,2617.3,1205.7,2621.9,1201.2z M2564.1,714.2c2.6,0.2,5.3,0.5,8.1,0.9c3.5,0.5,7.2,1.2,11,2.3l-1.7,6
				c-3.5-1-6.9-1.7-10.1-2.1c-2.7-0.3-5.3-0.6-7.8-0.8L2564.1,714.2z M2602.6,751.7l4.9,3.9c-4,5.2-8.3,10-12.8,14.3l-4.4-4.5
				C2594.6,761.2,2598.7,756.6,2602.6,751.7z M2648,1174.3l4.6,4.3c-4.4,4.7-8.7,9.3-13,13.7l-4.5-4.4
				C2639.3,1183.5,2643.6,1179,2648,1174.3z M2601.3,724.5c4.6,2.2,9.3,4.9,14.1,7.8c2.2-4,4.2-8.1,6.1-12.2l5.7,2.6
				c-2.6,5.9-5.6,11.6-8.9,17l-2.9-1.8l-0.9,1.3c-5.4-3.5-10.8-6.6-16-9.1L2601.3,724.5z M2669.4,1150.3c1.2-1.3,2.3-2.7,3.4-4
				l4.8,4c-1.1,1.4-2.3,2.7-3.5,4.1c-3,3.5-6,6.9-8.9,10.2l-4.7-4.2C2663.5,1157.1,2666.5,1153.7,2669.4,1150.3z M2633.5,745.1
				c4.9,3.8,9.8,8,14.5,12.3l-4.2,4.6c-4.7-4.3-9.4-8.3-14.2-12L2633.5,745.1z M2633,685l6.1,1.3c-1.4,6.3-3.1,12.5-5,18.5l-6-1.9
				C2630,697.1,2631.7,691.1,2633,685z M2637.5,648.3l6.3,0.2c-0.2,6.4-0.7,12.8-1.4,19.1l-6.2-0.8
				C2636.8,660.7,2637.3,654.5,2637.5,648.3z M2635.7,579.3c1.1,4.1,2,8.3,2.9,12.3l-6.1,1.3c-0.8-4-1.8-8-2.8-12L2635.7,579.3z
				 M2641.7,610.4c0.9,6.5,1.4,12.8,1.8,19l-6.3,0.3c-0.3-6-0.9-12.2-1.7-18.5L2641.7,610.4z M2695.2,1116.4l5.2,3.5
				c-3.4,5.2-7.1,10.4-11,15.5l-5-3.8C2688.2,1126.6,2691.9,1121.5,2695.2,1116.4z M2661.6,770.8c4.3,4.5,8.6,9.3,12.7,14.2l-4.8,4
				c-4-4.8-8.2-9.4-12.4-13.9L2661.6,770.8z M2713.9,1084.2l5.6,2.8c-2.8,5.6-5.8,11.2-9,16.8l-5.4-3.1
				C2708.2,1095.2,2711.1,1089.7,2713.9,1084.2z M2686.2,799.9c3.8,5,7.4,10.3,10.9,15.6l-5.3,3.4c-3.4-5.2-7-10.3-10.7-15.3
				L2686.2,799.9z M2728,1049.8l6,2c-2,6-4.2,12-6.6,17.9l-5.8-2.4C2723.9,1061.5,2726.1,1055.7,2728,1049.8z M2707,831.7
				c3.2,5.5,6.2,11.1,9,16.8l-5.6,2.8c-2.8-5.5-5.7-11.1-8.8-16.4L2707,831.7z M2736.9,1013.8l6.2,1c-1.1,6.2-2.4,12.5-3.9,18.7
				l-6.1-1.5C2734.6,1026,2735.9,1019.8,2736.9,1013.8z M2724,865.7c2.5,5.9,4.8,11.8,6.9,17.7l-5.9,2.1c-2-5.8-4.3-11.6-6.7-17.4
				L2724,865.7z M2736.6,901.6c1.7,6.1,3.2,12.4,4.5,18.5l-6.1,1.3c-1.2-6-2.7-12.1-4.4-18.1L2736.6,901.6z M2740.3,976.8l6.3,0.1
				c-0.1,6.3-0.4,12.7-1,19l-6.3-0.6C2739.9,989.2,2740.2,983,2740.3,976.8z M2744.3,938.9c0.8,6.3,1.4,12.6,1.8,19l-6.3,0.4
				c-0.4-6.2-1-12.4-1.8-18.5L2744.3,938.9z"/>
		</g>
		<g>
			<g>
				<g>
					<polygon class="st1" points="2614.7,596.2 2620.2,610.3 2635.9,592.1 2609.2,532.8 					"/>
				</g>
			</g>
			<g>
				<g>
					<polygon class="st2" points="2591,599.6 2609.2,532.8 2623.2,594.9 					"/>
				</g>
			</g>
			<g>
				<g>
					<polygon class="st3" points="2609.2,532.8 2631.5,593.2 2660.5,585.9 					"/>
				</g>
			</g>
			<g>
				<g>
					<polygon class="st4" points="2620.2,610.3 2623.2,594.9 2614.7,596.2 					"/>
				</g>
			</g>
		</g>
	</g>
	<ellipse class="st5" cx="1446.9" cy="1283.8" rx="1385.8" ry="107.5"/>
	<g>
		<path class="st6" d="M914.2,1269.4c-30.4,15.1-98.7,31.5-187.6,31.5c-252.7,0-383-157.3-383-365.6
			c0-249.6,177.9-388.4,399.2-388.4c85.8,0,150.8,17.4,180.1,32.6l-33.7,131.2c-33.7-14.1-80.2-27.1-138.9-27.1
			c-131.2,0-233.2,79.2-233.2,241.9c0,146.5,86.7,238.7,234.4,238.7c49.8,0,105.1-10.9,137.7-23.9L914.2,1269.4z"/>
		<path class="st6" d="M1044,568.7c53.2-8.8,132.3-15.3,220.2-15.3c108.5,0,184.5,16.3,236.5,57.6c43.4,34.7,67.2,85.7,67.2,153
			c0,93.2-66.2,157.2-129.1,180v3.3c51,20.6,79.3,69.4,97.6,136.6c22.8,82.5,45.6,177.9,59.7,206.2h-169.3
			c-11.9-20.6-29.3-80.3-51-170.3c-19.5-91.1-51-116.1-118.2-117.1h-49.9V1290H1044V568.7z M1207.8,883.2h65.1
			c82.4,0,131.3-41.2,131.3-105.2c0-67.3-45.6-100.9-121.5-101.9c-40.2,0-62.9,3.2-74.9,5.4V883.2z"/>
		<path class="st6" d="M2326.8,1010.2c-3.2-87.9-6.5-194.2-6.5-300.5h-3.2c-22.8,93.3-53.2,197.4-81.4,283.1l-88.9,285.3h-129.2
			l-78-283.1c-23.9-85.6-48.9-189.8-66.2-285.3h-2.2c-4.3,98.8-7.6,211.5-13,302.7l-13,277.7h-152.9l46.6-731.1h220.2l71.6,244.1
			c22.8,84.6,45.5,175.8,61.8,261.4h3.3c20.6-84.6,45.5-181.1,69.4-262.4l78-243.1h215.8l40.2,731.1h-161.7L2326.8,1010.2z"/>
	</g>
	<g>
		<g>
			<path class="st0" d="M512.9,897.3c-0.2,0.2-6.2,3.9-16.6,9.6l-3-5.5c10.2-5.6,16.2-9.4,16.2-9.4L512.9,897.3z M479.5,915.8
				c-5.2,2.6-11,5.4-17.1,8.2l-2.6-5.7c6.1-2.8,11.8-5.5,16.9-8.1L479.5,915.8z M444.9,931.5c-5.7,2.3-11.6,4.6-17.7,6.9l-2.1-5.9
				c6-2.2,11.9-4.5,17.5-6.8L444.9,931.5z M409.2,944.5c-6.2,2-12.3,3.7-18.3,5.3l-1.6-6.1c5.8-1.5,11.9-3.3,18-5.2L409.2,944.5z
				 M372.5,954.2c-6.3,1.3-12.6,2.4-18.8,3.3l-0.9-6.2c6-0.8,12.2-1.9,18.4-3.2L372.5,954.2z M334.7,959.4
				c-6.5,0.4-12.9,0.6-19.1,0.5l0.1-6.3c6,0.1,12.3-0.1,18.6-0.5L334.7,959.4z M296.5,958.6c-6.4-0.8-12.8-1.9-18.9-3.3l1.4-6.1
				c5.8,1.4,12,2.4,18.2,3.1L296.5,958.6z M259.3,949.9c-6.1-2.2-12-4.9-17.5-7.8l3-5.5c5.3,2.8,11,5.4,16.7,7.5L259.3,949.9z
				 M225.5,931.9c-5.1-3.7-10-7.9-14.7-12.3l4.3-4.5c4.4,4.3,9.2,8.2,14,11.8L225.5,931.9z M202.8,901.5l-4.9,3.9
				c-3.9-4.8-7.6-10.1-11.1-15.6l5.3-3.4C195.4,891.8,199,896.8,202.8,901.5z M183,870.3l-5.6,2.8c-2.8-5.5-5.4-11.4-7.8-17.4
				l5.8-2.3C177.7,859.3,180.3,865,183,870.3z M169.1,835.9l-6,1.9c-1.9-5.8-3.6-12-5.2-18.3l6.1-1.5
				C165.5,824.2,167.2,830.2,169.1,835.9z M546.6,482c-5.8,3.2-12.4,5.4-18.9,6.2l-0.8-6.2c5.7-0.7,11.6-2.7,16.7-5.5L546.6,482z
				 M561.6,468.5l-5.3-3.4c3.1-4.8,4.4-10.2,4-16l6.3-0.5C567.1,455.8,565.5,462.5,561.6,468.5z M159.9,799.8l-6.2,1.2
				c-1.2-6.1-2.3-12.4-3.2-18.7l6.2-0.9C157.6,787.6,158.7,793.8,159.9,799.8z M507.7,485.7c-6-2.5-11.4-6.6-16.1-12l4.7-4.1
				c4.1,4.7,8.7,8.2,13.8,10.3L507.7,485.7z M560.2,429.6l-5.4,3.1c-2-3.5-4.6-7.1-7.6-10.7c-1-1.2-2.1-2.4-3.3-3.7l4.6-4.3
				c1.2,1.3,2.4,2.6,3.5,3.9C555.2,421.9,558,425.8,560.2,429.6z M154.3,762.9l-6.2,0.7c-0.7-6.1-1.2-12.4-1.7-18.9l6.3-0.5
				C153.1,750.6,153.7,756.8,154.3,762.9z M487,454.5l-5.8,2.5c-2.4-5.7-4.3-11.9-5.6-18.6l6.2-1.2
				C482.9,443.4,484.7,449.2,487,454.5z M151.6,725.5l-6.3,0.3c-0.3-6.1-0.4-12.4-0.5-18.9l6.3-0.1
				C151.1,713.2,151.3,719.4,151.6,725.5z M530.4,405.8c-1.9-1.6-4-3.3-6.2-4.9c-2.6-2-5.5-3.8-8.7-5.6l3-5.5c3.5,1.9,6.7,4,9.5,6.1
				c2.2,1.7,4.4,3.4,6.4,5.1L530.4,405.8z M479.8,418.9l-6.3,0.1c-0.1-6.3,0.2-12.7,0.9-19.2l6.2,0.7
				C480,406.8,479.7,413,479.8,418.9z M151,688.1l-6.3-0.1c0.1-6.2,0.2-12.5,0.4-18.9l6.3,0.2C151.2,675.7,151.1,681.9,151,688.1z
				 M498.8,388.1c-5.5-1.8-11.5-3.5-17.8-4.8l0.3-1.6l-3.3-0.8c1.5-6.1,3.4-12.3,5.7-18.3l5.9,2.2c-1.6,4.3-3,8.7-4.2,13
				c5.5,1.2,10.7,2.7,15.5,4.3L498.8,388.1z M152.2,650.6l-6.3-0.3c0.2-4.4,0.5-8.9,0.8-13.5c0.1-1.8,0.3-3.6,0.4-5.4l6.3,0.5
				c-0.1,1.7-0.3,3.5-0.4,5.3C152.7,641.7,152.5,646.1,152.2,650.6z M462.6,380.4c-6-0.7-12.2-1.2-18.5-1.4l0.2-6.3
				c6.5,0.3,12.9,0.7,19,1.4L462.6,380.4z M496.8,347.9l-5.6-2.8c2.8-5.6,6-11.2,9.4-16.7l5.3,3.4
				C502.6,337,499.6,342.4,496.8,347.9z M516.6,316.6l-5-3.8c3.9-5,8-9.9,12.4-14.6l4.6,4.3C524.4,307,520.3,311.8,516.6,316.6z
				 M581.6,260c-3.6,2.2-7.1,4.4-10.5,6.6l-3.5-5.2c3.5-2.3,7-4.6,10.7-6.8L581.6,260z M556,277.5c-5,3.9-9.8,7.9-14.2,11.9
				l-4.2-4.6c4.6-4.2,9.5-8.3,14.6-12.3L556,277.5z M155.4,613.3l-6.2-0.8c0.9-6.4,1.9-12.7,3.1-18.8l6.2,1.2
				C157.3,600.9,156.3,607.1,155.4,613.3z M425.5,378.9c-6.1,0.2-12.4,0.6-18.6,1.1l-0.6-6.3c6.3-0.6,12.7-1,19-1.1L425.5,378.9z
				 M162.6,576.8l-6.1-1.6c1.6-6.2,3.4-12.3,5.4-18.2l6,2C165.9,564.7,164.2,570.7,162.6,576.8z M388.3,382.3
				c-6.1,0.9-12.3,2.1-18.3,3.4l-1.3-6.1c6.2-1.3,12.5-2.5,18.7-3.4L388.3,382.3z M174.3,541.5l-5.8-2.4c2.4-5.9,5.1-11.7,7.9-17.3
				l5.6,2.8C179.2,530,176.7,535.7,174.3,541.5z M351.9,390.1c-6,1.6-12,3.5-17.8,5.5l-2-5.9c6-2,12.1-3.9,18.2-5.6L351.9,390.1z
				 M190.9,508.2l-5.4-3.2c3.2-5.5,6.7-10.8,10.3-16l5.1,3.6C197.4,497.6,194,502.9,190.9,508.2z M316.6,402.1
				c-5.7,2.4-11.5,4.9-17,7.6l-2.8-5.6c5.6-2.8,11.5-5.4,17.4-7.8L316.6,402.1z M283.1,418.4c-5.4,3.1-10.7,6.4-15.8,9.8l-3.5-5.2
				c5.2-3.5,10.7-6.8,16.2-10L283.1,418.4z M212.2,477.8l-4.8-4c4-4.9,8.3-9.7,12.7-14.2l4.5,4.3C220.3,468.4,216.1,473,212.2,477.8
				z M252.2,439.1c-4.9,3.8-9.6,7.7-14.3,11.9l-4.2-4.7c4.8-4.3,9.6-8.3,14.6-12.2L252.2,439.1z"/>
		</g>
		<g>
			<g>
				<g>
					<polygon class="st1" points="581.4,281.5 567.5,287.6 569.2,263.6 629.8,240.2 					"/>
				</g>
			</g>
			<g>
				<g>
					<polygon class="st2" points="595.9,300.5 629.8,240.2 576.2,274.6 					"/>
				</g>
			</g>
			<g>
				<g>
					<polygon class="st3" points="629.8,240.2 571.5,267.5 556.1,241.9 					"/>
				</g>
			</g>
			<g>
				<g>
					<polygon class="st4" points="567.5,287.6 576.2,274.6 581.4,281.5 					"/>
				</g>
			</g>
		</g>
	</g>
	<g>
		<g>
			<path class="st7" d="M1492.1,393c-3.6,0-7.1,0.6-10.4,1.6c-6.9-12-17.7-19.8-29.9-19.8c-7.7,0-15,3.1-20.9,8.5
				c-2.2-21.2-15.8-37.6-32.3-37.6c-17.8,0-32.2,18.9-32.6,42.4c-5.8-4.1-12.3-6.4-19.3-6.4c-19.5,0-35.7,18-40.1,42.1
				c-3-1.3-6.1-2-9.4-2c-13.7,0-25.3,12.2-29,28.9H1538C1536.6,418.5,1516.6,393,1492.1,393z"/>
		</g>
		<g>
			<path class="st8" d="M1398.5,345.7c-17.8,0-32.2,18.9-32.6,42.4c-5.8-4.1-12.3-6.4-19.3-6.4c-19.5,0-35.7,18-40.1,42.1
				c-3-1.3-6.1-2-9.4-2c-13.7,0-25.3,12.2-29,28.9h54.5c6.7-7.9,11.3-17.6,12.7-28.2c11.1,6.2,24.3,9.7,38.4,9.7
				c37.1,0,67.8-24.8,72.2-56.8c-5.5,1.2-10.6,3.9-15.1,7.9C1428.7,362.1,1415.1,345.7,1398.5,345.7z"/>
		</g>
	</g>
	<g>
		<g>
			<path class="st7" d="M2486.3,363c-5.8,0-11.4,1-16.9,2.6c-11.1-19.5-28.6-32.1-48.4-32.1c-12.6,0-24.2,5.1-33.9,13.7
				c-3.5-34.3-25.6-60.8-52.3-60.8c-28.7,0-52.1,30.6-52.8,68.7c-9.3-6.6-19.9-10.4-31.3-10.4c-31.5,0-57.9,29.1-65,68.2
				c-4.8-2.1-9.9-3.3-15.2-3.3c-22.2,0-41,19.7-47,46.8h437C2558.4,404.3,2526,363,2486.3,363z"/>
		</g>
		<g>
			<path class="st8" d="M2334.8,286.4c-28.7,0-52.1,30.6-52.8,68.7c-9.3-6.6-19.9-10.4-31.3-10.4c-31.5,0-57.9,29.1-65,68.2
				c-4.8-2.1-9.9-3.3-15.2-3.3c-22.2,0-41,19.7-47,46.8h88.3c10.9-12.8,18.3-28.5,20.5-45.7c18,10,39.3,15.8,62.1,15.8
				c60.2,0,109.7-40.1,116.9-92c-8.9,1.9-17.2,6.3-24.4,12.8C2383.6,312.9,2361.6,286.4,2334.8,286.4z"/>
		</g>
	</g>
	<path class="st9" d="M2016,1008.6c14.7,0,14.1,44,25.9,52.5c11.9,8.6,54.7-5.8,58,8.4c3.3,14.3-39.2,26.5-42,40.9
		c-2.7,14.4,22.5,50.2,9.9,57.8c-12.6,7.5-37.3-29.1-51.9-27.3c-14.5,1.8-40.8,36.9-51.9,27.3c-11-9.6,16.1-44.5,9.9-57.8
		c-6.2-13.3-47.7-27.4-42-40.9c5.7-13.5,47.3,1.6,58-8.4C2000.8,1051.2,2001.4,1008.6,2016,1008.6z"/>
	<path class="st9" d="M2218.5,1008.6c14.6,0,14.1,44,25.9,52.5c11.9,8.6,54.7-5.8,58,8.4c3.3,14.3-39.2,26.5-42,40.9
		c-2.7,14.4,22.5,50.2,9.9,57.8c-12.6,7.5-37.3-29.1-51.9-27.3c-14.5,1.8-40.8,36.9-51.9,27.3c-11-9.6,16.2-44.5,9.9-57.8
		c-6.2-13.3-47.7-27.4-42-40.9c5.7-13.5,47.3,1.6,58-8.4C2203.2,1051.2,2203.8,1008.6,2218.5,1008.6z"/>
	<g>
		<g>
			<g>
				<g>
					<path class="st10" d="M2427.2,1266.7c0,0-101.1-123.1-162.3-109.3c-38,8.6-60.6,142.3-60.6,142.3h31.1l43.4-76.7l66.4,76.7
						L2427.2,1266.7z"/>
				</g>
			</g>
		</g>
		<g>
			<g>
				<g>
					<g>
						<g>
							<path class="st11" d="M2500.9,1275.3c0,0,6.6,52.4-54.1,49.2c0,0-137.6-8.7-183.5-7.3c-38.3,1.2-152.4,15.5-152.4,15.5V1304
								l178.6-37.4C2289.5,1266.6,2441.9,1255.7,2500.9,1275.3z"/>
						</g>
					</g>
				</g>
			</g>
		</g>
		<g>
			<g>
				<g>
					<g>
						<path class="st12" d="M2110.9,1304c0,0-9.8-1.2-14.8-19.1c-4.9-17.8-14.7-14.9-13.1,0c1.6,15-3.3,52.6,8.2,47.7
							c11.5-4.9,19.7,0,19.7,0V1304z"/>
					</g>
				</g>
			</g>
		</g>
		<path class="st13" d="M2433.2,1141c0,0-26.1,88.4-59.2,71.5c-33-17-49.6-40.6-49.6-40.6l5.5-20.5c0,0,33.3,48.9,57.2,35.1
			c10.3-6,21.1-52.5,21.1-52.5L2433.2,1141z"/>
		<path class="st9" d="M2401.1,1145.7l40.8,12.8c0,0,20.5-57.4-2.4-59.4C2416.6,1097.2,2407.2,1130.9,2401.1,1145.7z"/>
		<path class="st12" d="M2613.3,1153.9c0,0,28.1,14.9,19.4,31.8c-8.6,16.9-38.8,35-29.1,63.3c9.7,28.3,41.8,44.9,14.4,53.2
			c-27.4,8.3-105.1-53.3-110.4-62.1c-5.3-8.8,53.7-80.1,53.7-80.1L2613.3,1153.9z"/>
		<g>
			<g>
				<g>
					<g>
						<path class="st12" d="M2488.2,1022.6c0,0,18.5,8.9,18.6,23.5c0.1,14.5,22.6,38.3,41.4,43.2c116.7,30.5,21.9,30.5,72,70.7
							c21.2,17-49.4-8-81.5,77.7c-5.4,14.5-20.7-42.5-24.3-51.2c-3.5-8.6-33.8-53.8-36.5-68.5c-2.8-14.7-20.8-9.8-25.6-20.5
							c-4.7-10.8,2.4-24.1,0.4-30c-7.3-21.6,4-35.7,16.4-44.1C2481.5,1014.9,2488.2,1022.6,2488.2,1022.6z"/>
					</g>
				</g>
			</g>
		</g>
		<path class="st9" d="M2343.8,1118.8c-15.2,0-14.6,43.9-26.9,52.4c-12.3,8.6-56.8-5.8-60.1,8.4c-3.4,14.2,40.7,26.5,43.5,40.8
			c2.8,14.4-23.3,50.1-10.3,57.6c13,7.5,38.7-29,53.8-27.2c15.1,1.8,42.4,36.8,53.8,27.2c11.5-9.6-16.7-44.4-10.3-57.6
			c6.5-13.2,49.5-27.4,43.5-40.8c-6-13.5-49,1.6-60.2-8.4C2359.6,1161.2,2359,1118.8,2343.8,1118.8z"/>
		<path class="st14" d="M2503.5,1095.6c0,0,46,16.8,32.8,75.3c-13.1,58.5-36.3,111.2-36.3,111.2s-53-3.3-80.5-20.9
			C2419.5,1261.2,2370.9,1050.5,2503.5,1095.6z"/>
		<path class="st13" d="M2524.7,1149.4c0,0,12.5,103.5-29.7,99.5c-42.2-4-101.2-37.3-101.2-37.3l4.9-12c0,0,79.5,41,98.2,16.7
			c8.1-10.6-1.5-63.8-1.5-63.8L2524.7,1149.4z"/>
		<path class="st9" d="M2485.8,1175.1l42.6,5.2c0,0,9-60.1-14-57.9C2491.6,1124.6,2488.9,1159.4,2485.8,1175.1z"/>
		<g>
			<g>
				<g>
					<path class="st13" d="M2489.1,1062.9l6.3,31.8c0,0-37.3,25.9-33.1,10.4c3.9-14.4,7.2-43.2,7.2-43.2L2489.1,1062.9z"/>
				</g>
			</g>
		</g>
		<g>
			<g>
				<g>
					<g>
						<path class="st13" d="M2490.7,1026.8c2.1,6.5,6.3,19.3,2.5,27.5c-3.8,8.3-9.5,23.1-18.7,26.3c-9.2,3.2-11.1-7.8-12.8-11.6
							c-1.8-3.7-4.9-39.5,10-47.3C2482.9,1015.9,2489.1,1021.8,2490.7,1026.8z"/>
					</g>
				</g>
			</g>
		</g>
		<g>
			<g>
				<g>
					<path class="st12" d="M2476.6,1030c0,0,7.4,19.3,19.2,23.8c0,0,3.3-29.6-13.5-34.3c0,0-20.3-2.4-23.3,24.5
						C2459.1,1044,2475.1,1039.2,2476.6,1030z"/>
				</g>
			</g>
		</g>
		<path class="st13" d="M2407.6,1203.9c0,0-11.5-14.5-23.6-15.8c-12.1-1.3-13.7,5.3-15.4,13.7c-1.6,8.3,17.5,5.7,25.1,9.8
			C2401.3,1215.7,2407.6,1203.9,2407.6,1203.9z"/>
	</g>
	<g>
		<path class="st12" d="M245.8,892c0,0-87.7-110.5-61.8-170.1c25.9-59.6,66.5-70.2,138.4-70.2S591,638.4,629.1,673
			c38.1,34.6,74.6,141.9-30.1,156.2c-104.7,14.4-293.8,3.4-311,1.9C270.8,829.5,245.8,892,245.8,892z"/>
		<path class="st9" d="M290.2,715.4c5.4,0,5.2,16.1,9.5,19.3c4.4,3.2,20.1-2.1,21.3,3.1c1.2,5.3-14.4,9.7-15.4,15
			c-1,5.3,8.3,18.5,3.6,21.2s-13.7-10.7-19.1-10c-5.3,0.7-15,13.6-19,10c-4.1-3.5,5.9-16.3,3.6-21.2c-2.3-4.9-17.5-10.1-15.4-15
			c2.1-4.9,17.4,0.6,21.3-3.1C284.6,731,284.9,715.4,290.2,715.4z"/>
		<path class="st9" d="M360,715.4c5.4,0,5.2,16.1,9.5,19.3c4.4,3.2,20.1-2.1,21.3,3.1c1.2,5.3-14.4,9.7-15.4,15
			c-1,5.3,8.2,18.5,3.6,21.2c-4.6,2.8-13.7-10.7-19-10c-5.3,0.7-15,13.6-19,10c-4.1-3.5,5.9-16.3,3.6-21.2
			c-2.3-4.9-17.5-10.1-15.4-15c2.1-4.9,17.4,0.6,21.3-3.1C354.4,731,354.6,715.4,360,715.4z"/>
		<path class="st9" d="M431.7,715.4c5.4,0,5.2,16.1,9.5,19.3c4.3,3.2,20.1-2.1,21.3,3.1c1.2,5.3-14.4,9.7-15.4,15
			c-1,5.3,8.3,18.5,3.6,21.2s-13.7-10.7-19-10c-5.3,0.7-15,13.6-19,10c-4.1-3.5,5.9-16.3,3.6-21.2c-2.3-4.9-17.5-10.1-15.4-15
			c2.1-4.9,17.4,0.6,21.3-3.1C426.1,731,426.3,715.4,431.7,715.4z"/>
		<path class="st9" d="M507.9,715.4c5.4,0,5.2,16.1,9.5,19.3c4.4,3.2,20.1-2.1,21.3,3.1c1.2,5.3-14.4,9.7-15.4,15
			c-1,5.3,8.2,18.5,3.6,21.2c-4.6,2.8-13.7-10.7-19.1-10c-5.3,0.7-15,13.6-19,10c-4.1-3.5,5.9-16.3,3.6-21.2
			c-2.3-4.9-17.5-10.1-15.4-15c2.1-4.9,17.4,0.6,21.3-3.1C502.3,731,502.5,715.4,507.9,715.4z"/>
		<path class="st15" d="M579.6,715.4c5.4,0,5.1,16.1,9.5,19.3c4.4,3.2,20.1-2.1,21.3,3.1c1.2,5.3-14.4,9.7-15.4,15
			c-1,5.3,8.3,18.5,3.6,21.2c-4.6,2.8-13.7-10.7-19-10c-5.3,0.7-15,13.6-19,10c-4.1-3.5,5.9-16.3,3.6-21.2
			c-2.3-4.9-17.5-10.1-15.4-15c2.1-4.9,17.4,0.6,21.3-3.1C574,731,574.2,715.4,579.6,715.4z"/>
	</g>
	<g>
		<path class="st12" d="M2441.5,957c0,0,50.5-63.6,35.6-98c-14.9-34.3-38.3-40.4-79.7-40.4c-41.4,0-154.6-7.6-176.6,12.3
			c-21.9,19.9-43,81.7,17.3,89.9c60.3,8.3,169.2,2,179.1,1.1C2427.1,921,2441.5,957,2441.5,957z"/>
		<path class="st9" d="M2415.9,855.3c-3.1,0-3,9.3-5.5,11.1c-2.5,1.8-11.6-1.2-12.3,1.8c-0.7,3,8.3,5.6,8.9,8.6
			c0.6,3-4.8,10.6-2.1,12.2c2.7,1.6,7.9-6.2,11-5.8c3.1,0.4,8.6,7.8,11,5.8c2.3-2-3.4-9.4-2.1-12.2c1.3-2.8,10.1-5.8,8.9-8.6
			c-1.2-2.9-10,0.3-12.3-1.8C2419.2,864.3,2419,855.3,2415.9,855.3z"/>
		<path class="st9" d="M2375.8,855.3c-3.1,0-3,9.3-5.5,11.1c-2.5,1.8-11.6-1.2-12.3,1.8c-0.7,3,8.3,5.6,8.9,8.6
			c0.6,3-4.7,10.6-2.1,12.2c2.7,1.6,7.9-6.2,11-5.8c3.1,0.4,8.6,7.8,11,5.8c2.3-2-3.4-9.4-2.1-12.2c1.3-2.8,10.1-5.8,8.9-8.6
			c-1.2-2.9-10,0.3-12.3-1.8C2379,864.3,2378.9,855.3,2375.8,855.3z"/>
		<path class="st9" d="M2334.5,855.3c-3.1,0-3,9.3-5.5,11.1c-2.5,1.8-11.6-1.2-12.3,1.8c-0.7,3,8.3,5.6,8.9,8.6
			c0.6,3-4.8,10.6-2.1,12.2c2.7,1.6,7.9-6.2,11-5.8c3.1,0.4,8.6,7.8,11,5.8c2.3-2-3.4-9.4-2.1-12.2c1.3-2.8,10.1-5.8,8.9-8.6
			c-1.2-2.9-10,0.3-12.3-1.8C2337.7,864.3,2337.6,855.3,2334.5,855.3z"/>
		<path class="st15" d="M2290.6,855.3c-3.1,0-3,9.3-5.5,11.1c-2.5,1.8-11.6-1.2-12.3,1.8c-0.7,3,8.3,5.6,8.9,8.6
			c0.6,3-4.7,10.6-2.1,12.2c2.7,1.6,7.9-6.2,11-5.8c3.1,0.4,8.6,7.8,11,5.8c2.3-2-3.4-9.4-2.1-12.2c1.3-2.8,10.1-5.8,8.9-8.6
			c-1.2-2.9-10,0.3-12.3-1.8C2293.8,864.3,2293.7,855.3,2290.6,855.3z"/>
		<path class="st15" d="M2249.4,855.3c-3.1,0-3,9.3-5.5,11.1c-2.5,1.8-11.6-1.2-12.3,1.8c-0.7,3,8.3,5.6,8.9,8.6
			c0.6,3-4.8,10.6-2.1,12.2c2.7,1.6,7.9-6.2,11-5.8c3.1,0.4,8.6,7.8,11,5.8c2.3-2-3.4-9.4-2.1-12.2c1.3-2.8,10.1-5.8,8.9-8.6
			c-1.2-2.9-10,0.3-12.3-1.8C2252.6,864.3,2252.5,855.3,2249.4,855.3z"/>
	</g>
	<g>
		<path class="st10" d="M294.2,1017.5c0,0-83.5-68.9-122.4-7.9c-38.9,61-117.6,254.5,49.8,280.4c167.3,25.9,367.8,23,298.5-52.9
			C450.7,1161.2,354,1054,294.2,1017.5z"/>
		<path class="st11" d="M224.9,985c0,0-90.2,84-9.5,176c80.7,92.1,235.7,125.9,285.6,55.3C501,1216.3,336.9,986.4,224.9,985z"/>
		<g>
			<g>
				<g>
					<g>
						<path class="st16" d="M259.3,1137.5l86.4,6.9l101.2,14.5c0,0,22.2,0.6,20.7,57.5l1.5,102.6l-11.6-0.2c0,0-28.7-61.8-33.8-113
							c0,0-81.7-4.5-111.9-17.9C281.5,1174.6,252.5,1141.3,259.3,1137.5z"/>
					</g>
				</g>
			</g>
		</g>
		<g>
			<g>
				<g>
					<g>
						<g>
							<path class="st17" d="M234.4,1142.4c0,0,111.4,14,182.5,43.3c14.4,5.9,21.3,5.3,3.5,62l-27.1,105.1l-11.6-3.5
								c0,0-8.2-67.3-0.5-121c0,0-82,4-118.1-10.4C231,1205.1,223.3,1158.1,234.4,1142.4z"/>
						</g>
					</g>
				</g>
			</g>
		</g>
		<g>
			<g>
				<g>
					<g>
						<path class="st18" d="M403.9,1342.2c0,0,0.1,10.6,18.4,18c18.3,7.4,14.1,17.5-1.6,13.9c-15.7-3.6-56.3-3-49.7-14.6
							c6.6-11.6,2.4-20.9,2.4-20.9L403.9,1342.2z"/>
					</g>
				</g>
			</g>
		</g>
		<g>
			<g>
				<g>
					<g>
						<path class="st18" d="M478.9,1314.1c0,0,0.1,10.6,18.4,18c18.3,7.4,14.1,17.5-1.6,13.9c-15.7-3.6-56.3-3-49.7-14.6
							c6.6-11.6,2.4-20.9,2.4-20.9L478.9,1314.1z"/>
					</g>
				</g>
			</g>
		</g>
		<g>
			<path class="st13" d="M323.9,1041.2c0,0,1.2,99.3,39.1,90.6c37.9-8.7,87.5-47.1,87.5-47.1l-5.9-10.8c0,0-52.6,33-72.6,12.2
				c-8.7-9-21.1-45.4-21.1-45.4L323.9,1041.2z"/>
			<path class="st9" d="M327.5,1071.7l34.2-19.5c0,0-27.8-50.7-43.4-36.4C302.8,1030.1,320.7,1058.1,327.5,1071.7z"/>
			<path class="st19" d="M291.4,986.8c0,0,49,8,45.1,65.2c-3.9,57.2,17.8,82.6-3.7,100.8c-16.2,13.7-71.6,23.5-102.2,11.7
				C230.6,1164.5,150.5,967.1,291.4,986.8z"/>
			<g>
				<path class="st13" d="M261.6,966.9l-7,28.7c0,0,8.3,16.1,27.8-0.7l-7.3-29.8L261.6,966.9z"/>
				<g>
					<g>
						<g>
							<g>
								<g>
									<path class="st13" d="M259.7,920.3c-3.5,5.2-10.3,15.4-8.6,23.6c1.6,8.2,3.7,22.6,11.6,27.6c7.9,5,14.5-1.6,16.7-4.7
										c3.4-5.1,11.6-35.8-0.6-46.2C269.5,912.6,262.3,916.4,259.7,920.3z"/>
								</g>
							</g>
						</g>
					</g>
					<g>
						<g>
							<g>
								<path class="st20" d="M302.3,920.3c0,0-26.5,11.8-35.6,7.5c-9.1-4.4-9.8,5.3-10,6.4c-0.2,1.1-1.3,14.8-4.7,14.4
									c-3.4-0.5-4.3-18.2,2.9-28.4C262,909.9,299.6,905,302.3,920.3z"/>
							</g>
						</g>
					</g>
				</g>
			</g>
			<path class="st13" d="M219.1,1051.2c0,0,1.2,99.3,39.1,90.6c37.9-8.7,87.5-47.1,87.5-47.1l-5.9-10.8c0,0-52.6,33-72.6,12.2
				c-8.7-9-21.1-45.4-21.1-45.4L219.1,1051.2z"/>
			<path class="st9" d="M216.2,1076.1l35.6-16.9c0,0-24-52.7-40.6-39.5C194.6,1032.8,210.5,1062,216.2,1076.1z"/>
			<g>
				<polygon class="st21" points="281.1,1158.1 372.2,1156.2 372,1147.5 281,1149.4 				"/>
				<polygon class="st21" points="515.4,1066.4 388.6,1069 364.2,1156.3 490.9,1153.6 				"/>
				<g>
					<path class="st22" d="M433.6,1117.9c0.1,6.1,5.2,11,11.4,10.9c6.2-0.1,11.1-5.2,10.9-11.4c-0.1-6.2-5.2-11-11.4-10.9
						C438.4,1106.7,433.5,1111.8,433.6,1117.9z"/>
				</g>
			</g>
		</g>
	</g>
	<g>
		<path class="st13" d="M982.7,942.1c0,0-19.8,69.8-44.9,56.4c-25.1-13.4-37.6-32-37.6-32l4.1-16.2c0,0,25.3,38.5,43.4,27.7
			c7.8-4.7,16.1-41.4,16.1-41.4L982.7,942.1z"/>
		<path class="st11" d="M957,942.9l41.6,13.6c0,0,20.9-60.8-2.5-62.8C972.8,891.6,963.2,927.2,957,942.9z"/>
		<path class="st12" d="M1173.1,951.5c0,0,28.6,15.8,19.8,33.7c-8.8,17.9-39.5,37.1-29.6,67c9.9,29.9-33.4,75.4-61.3,84.2
			c-27.8,8.8-31-84.3-36.4-93.7c-5.4-9.3,54.6-84.7,54.6-84.7L1173.1,951.5z"/>
		<g>
			<g>
				<g>
					<g>
						<path class="st12" d="M1045.6,812.6c0,0,18.8,9.5,18.9,24.9c0.1,15.4,23,40.5,42.2,45.7c118.8,32.3,22.3,32.2,73.3,74.8
							c21.6,18-50.3-8.5-82.9,82.2c-5.5,15.4-21.1-44.9-24.7-54.1c-3.6-9.1-34.4-57-37.2-72.5c-2.8-15.6-21.2-10.4-26.1-21.7
							c-4.8-11.4,2.5-25.5,0.4-31.8c-7.4-22.9,4.1-37.8,16.7-46.7C1038.8,804.5,1045.6,812.6,1045.6,812.6z"/>
					</g>
				</g>
			</g>
		</g>
		<path class="st13" d="M1057.7,1087.2c0,0-1.1,84.7-6.3,110.1c-7.1,34.7-20.7,110.3-20.7,110.3l-11.9-8c0,0,9.9-87,3-112.4
			c-6.9-25.4-18.2-109.4-18.2-109.4L1057.7,1087.2z"/>
		<path class="st13" d="M975.7,1065.1c0,0-0.9,113,4.3,138.3c7.1,34.7,22.6,108.8,22.6,108.8l11.9-8c0,0-10.5-86-3.6-111.4
			c6.9-25.4,18.8-110.3,18.8-110.3L975.7,1065.1z"/>
		<path class="st9" d="M1061.3,889.9c0,0,46.8,17.8,33.4,79.7c-13.4,61.9-37,117.6-37,117.6s-53.9-3.5-82-22.2
			C975.7,1065.1,926.2,842.2,1061.3,889.9z"/>
		<g>
			<g>
				<g>
					<path class="st13" d="M1046.6,855.3l6.5,33.7c0,0-38,27.5-33.7,11c4-15.2,7.4-45.7,7.4-45.7L1046.6,855.3z"/>
				</g>
			</g>
		</g>
		<g>
			<g>
				<g>
					<g>
						<path class="st13" d="M1048.2,817.1c2.1,6.9,6.4,20.4,2.6,29.1c-3.9,8.8-9.7,24.5-19,27.8c-9.3,3.4-11.3-8.3-13-12.2
							c-1.8-3.9-5-41.8,10.2-50.1C1040.3,805.5,1046.6,811.8,1048.2,817.1z"/>
					</g>
				</g>
			</g>
		</g>
		<g>
			<g>
				<g>
					<path class="st12" d="M1033.9,820.5c0,0,7.6,20.4,19.5,25.2c0,0,3.3-31.4-13.7-36.3c0,0-20.6-2.6-23.8,25.9
						C1016,835.3,1032.3,830.2,1033.9,820.5z"/>
				</g>
			</g>
		</g>
		<path class="st17" d="M1069.2,1057.1c0,0-31.1,16.7-98.5-15.2c0,0-41.5,75.4-59.3,107.9c-5.6,10.3-3.7,35.8,10.6,30.6
			c14.3-5.1,55.3-14.6,77.3,6.1c19.6,18.5,40.7-29.3,74.7-2.3c24.6,19.5,29.4,14.2,44,3C1132.6,1176,1069.2,1057.1,1069.2,1057.1z"
			/>
		<path class="st16" d="M1019.9,1300.4c0,0-11.2,15.4,12.8,25.9c24.1,10.4,50.8,9.4,37.9-3
			C1057.7,1310.8,1026.1,1300.1,1019.9,1300.4z"/>
		<path class="st16" d="M1013.4,1302.4c0,0,12.1,10.7-6.5,24.5c-18.6,13.9-41.3,18.6-32.5,5.4
			C983.2,1319.2,1008.1,1303.5,1013.4,1302.4z"/>
		<path class="st18" d="M1190.3,846.3c-11.7,11.2-31.9,24.6-38.3,17.9c-6.4-6.7,4.7-27.7,16.4-38.9c11.7-11.2,18.3-9.3,24.7-2.7
			C1199.6,829.2,1202,835.1,1190.3,846.3z"/>
		<path class="st19" d="M1139.9,763.7c-7.6,16.2-23.1,37.8-32.3,33.5c-9.2-4.3-6.1-30.3,1.5-46.5c7.6-16.2,15.1-16.9,24.3-12.5
			C1142.7,742.5,1147.5,747.5,1139.9,763.7z"/>
		<path class="st13" d="M1075.3,950.9c0,0-51.3,97.6-84.4,69.9C957.8,993,928.1,930,928.1,930l11.3-7.7c0,0,42.3,81.5,72.6,71
			c13.1-4.5,36.8-56.6,36.8-56.6L1075.3,950.9z"/>
		<path class="st11" d="M1027.3,951l32.7,29c0,0,43.4-47.4,22.8-58.6C1062.3,910.2,1039.3,939,1027.3,951z"/>
		<path class="st13" d="M942.9,929.1c0,0-9.3-16.8-21.4-20c-12-3.2-14.7,3.6-17.5,12.1c-2.9,8.5,16.8,8.6,23.8,13.9
			C934.8,940.5,942.9,929.1,942.9,929.1z"/>
	</g>
	<g>
		<path class="st23" d="M995.9,376.5c0,0-169.9-29.4-168.9,53.5c1,82.9-38.7,134.6,125.4,159.5l60.8,93.6l56.2-73.2
			c0,0,142.4-4.4,137.1-71.6C1201.3,471.2,1290.5,371.5,995.9,376.5z"/>
		<path class="st0" d="M1029.7,474c15.7,38.2,10.8,76.5-11.1,85.5c-21.9,9-52.4-14.6-68.2-52.8c-15.7-38.2-10.8-76.5,11.1-85.5
			C983.4,412.2,1013.9,435.8,1029.7,474z"/>
		<path class="st0" d="M1071.7,513c-18.3,37-50.4,58.5-71.6,48c-21.2-10.5-23.5-49-5.2-86.1c18.3-37,50.4-58.5,71.6-48
			C1087.7,437.5,1090,476,1071.7,513z"/>
	</g>
	<g>
		<path class="st23" d="M800.4,742.1c0,0-116.7-20.2-116,36.7c0.7,56.9-26.6,92.4,86.1,109.5l41.8,64.2l38.6-50.2
			c0,0,97.8-3,94.2-49.2C941.5,807.1,1002.7,738.6,800.4,742.1z"/>
		<path class="st0" d="M823.6,809c10.8,26.2,7.4,52.5-7.6,58.7c-15,6.2-36-10-46.8-36.2c-10.8-26.2-7.4-52.5,7.6-58.7
			C791.9,766.6,812.8,782.8,823.6,809z"/>
		<path class="st0" d="M852.5,835.8c-12.6,25.4-34.6,40.2-49.2,33c-14.6-7.2-16.2-33.7-3.6-59.1c12.6-25.4,34.6-40.2,49.2-33
			C863.5,784,865.1,810.4,852.5,835.8z"/>
	</g>
	<g>
		<g>
			<path class="st23" d="M1837.9,1073.9c0,0-24.7,75.5-56.6,98.7c-31.9,23.2-75.5,82.7-85.6,116.1c-10.1,33.4-10.1,33.4-10.1,33.4
				h-20.3c0,0,19.9-200.2,96.8-248.1H1837.9z"/>
			<path class="st24" d="M1837.9,1073.9c0,0,10.6,112.4,22.2,124c11.6,11.6,83.7,39.9,83.7,39.9v17.8c0,0-127.1,45.1-181.8-66.1
				L1837.9,1073.9z"/>
			<g>
				<g>
					<g>
						<path class="st12" d="M1658.1,1318.5c0,0-0.1,10.6-18.4,18c-18.3,7.4-14,17.5,1.6,13.9c15.6-3.6,56.1-3,49.5-14.5
							c-6.6-11.6-2.4-20.8-2.4-20.8L1658.1,1318.5z"/>
					</g>
				</g>
			</g>
			<g>
				<g>
					<g>
						<path class="st12" d="M1937.6,1262.7c0,0,10.2,2.7,12.9,22.2c2.7,19.5,13.5,17.8,13.8,1.8c0.3-16,10.8-55.2-2-51.6
							c-12.8,3.6-20.8-2.8-20.8-2.8L1937.6,1262.7z"/>
					</g>
				</g>
			</g>
			<path class="st13" d="M1697.2,922.6c0,0-39,6.8-71.1-20.6c-32.2-27.4-60.6-89.2-60.6-89.2l11.1-7.4c0,0,39.4,62.5,69.5,71.1
				c37.8,10.7,63.7,12.3,63.7,12.3L1697.2,922.6z"/>
			<path class="st10" d="M1676.8,925.1l7.4-42.1c0,0,62,9.9,53,31C1728.3,935.1,1693.2,927,1676.8,925.1z"/>
			<path class="st12" d="M1779.9,885.4c0,0,53.8,2.8,56.3,65c2.5,62.2,11.3,129.8,11.3,129.8s-70.8,19.7-105.2,10.5
				C1742.2,1090.6,1625.6,880.6,1779.9,885.4z"/>
			<polygon class="st19" points="1736.3,910.4 1748.8,937 1728.3,956.7 1715.9,934 			"/>
			<path class="st19" d="M1730.4,954.6c0,0,2.5,119.8,48.2,133.7l12,31.7l-36.7-10.6c0,0-66.5-43.9-31.3-163L1730.4,954.6z"/>
			<path class="st13" d="M1767,871.4l12.6,29.5c0,0-6,18.6-29.9,4.2l2.5-33.2L1767,871.4z"/>
			<g>
				<g>
					<g>
						<g>
							<g>
								<path class="st13" d="M1760.7,821.2c4.6,5,13.8,14.6,13.5,23.7c-0.3,9,0.1,24.8-7.5,31.6c-7.6,6.8-15.8,0.9-18.6-2.1
									c-4.5-4.8-18.8-36.2-7.6-49.6C1748.8,814.8,1757.2,817.5,1760.7,821.2z"/>
							</g>
						</g>
					</g>
				</g>
				<g>
					<g>
						<g>
							<path class="st20" d="M1715.1,828.8c0,0,30.5,7.9,39.4,1.7c8.9-6.3,11.4,4,11.8,5c0.4,1.1,4.1,15.6,7.6,14.6
								c3.5-1.1,1.4-20.2-8.2-29.9C1756.4,810.5,1715.3,811.9,1715.1,828.8z"/>
						</g>
					</g>
				</g>
			</g>
			<g>
				<path class="st13" d="M1782.1,962.3c0,0-68,83.5-94.3,50.5c-26.3-33-42.5-99.1-42.5-99.1l12.3-5.2c0,0,22.3,63.5,53.4,59.4
					c13.5-1.8,48.6-24.4,48.6-24.4L1782.1,962.3z"/>
				<path class="st10" d="M1783.9,970.8l-29.6-30.8c0,0,44.5-44.3,56.3-24.6C1822.3,935.1,1795.1,958.6,1783.9,970.8z"/>
			</g>
			<path class="st13" d="M1657.6,908.6c0,0-2.1-32.2-12.3-25.6c-10.2,6.6,0,30.8,0,30.8L1657.6,908.6z"/>
		</g>
		<g>
			<path class="st13" d="M1618.5,806c0,0-51.5-8.3-79.9-50.2c-7.3-10.8-26.7-32-1.6-135.6c2.4-9.8-17.7-42.9-40-6.6
				c-22.3,36.4-31.5,64-26.5,89.6c0,0,0.8,12.3-38.1-3.5c-27.1-11-31,17.7-26.1,29.6c0,0-22.1,0.3-29.7,26.8c0,0-1.3,14.3,9.5,23.7
				c0,0-40.3,19.5-21,46.2c0,0-61.9,28.8-5.5,61.2c0,0,37.2,26.7,107.9,31.9c70.7,5.2,70.7,12.5,90,21.4c19.4,8.9,19.4,8.9,19.4,8.9
				l46.9-141.1L1618.5,806z"/>
			<polygon class="st11" points="1615.7,804.8 1566.5,944.5 1593.6,955.8 1650.4,815.1 			"/>
			<path class="st9" d="M1537.5,602.3c0,0-20.6,1.9-22.2,21.4c-1.6,19.6,4.9,24.4,7,24.2c2.1-0.2,12.4-8,14.8-16.1
				C1539.5,623.8,1548.5,603.2,1537.5,602.3z"/>
		</g>
	</g>
	<g>
		<path class="st9" d="M1944.2,366.4c0,66.4-53.9,120.3-120.3,120.3c-66.4,0-120.3-53.9-120.3-120.3c0-66.4,53.9-120.3,120.3-120.3
			C1890.3,246.1,1944.2,300,1944.2,366.4z"/>
		<path class="st25" d="M1795.5,335c0,11.4-9.2,20.6-20.6,20.6c-11.4,0-20.6-9.2-20.6-20.6c0-11.4,9.2-20.6,20.6-20.6
			C1786.3,314.4,1795.5,323.6,1795.5,335z"/>
		<path class="st25" d="M1885.7,335c0,11.4-9.2,20.6-20.6,20.6c-11.4,0-20.6-9.2-20.6-20.6c0-11.4,9.2-20.6,20.6-20.6
			C1876.5,314.4,1885.7,323.6,1885.7,335z"/>
		<path class="st18" d="M1924,369.5c0,6.9-9.6,12.4-21.5,12.4c-11.9,0-21.5-5.6-21.5-12.4c0-6.9,9.6-12.4,21.5-12.4
			C1914.4,357.1,1924,362.6,1924,369.5z"/>
		<path class="st18" d="M1765.7,369.5c0,6.9-9.6,12.4-21.5,12.4c-11.9,0-21.5-5.6-21.5-12.4c0-6.9,9.6-12.4,21.5-12.4
			C1756.1,357.1,1765.7,362.6,1765.7,369.5z"/>
		<g>
			<path class="st26" d="M1848.6,299.3l-8-4.8c0.2-0.4,6.1-10,18.1-12.8c9.1-2.1,19,0.1,29.5,6.6l-5,7.9c-8.3-5.2-15.8-7-22.4-5.5
				C1852.8,292.7,1848.6,299.3,1848.6,299.3z"/>
		</g>
		<g>
			<path class="st26" d="M1791.5,299.4c0-0.1-4.2-6.7-12.4-8.6c-6.6-1.5-14,0.3-22.3,5.5l-5-7.9c10.4-6.6,20.4-8.8,29.5-6.6
				c12,2.9,17.9,12.4,18.1,12.8L1791.5,299.4l4-2.4L1791.5,299.4z"/>
		</g>
		<g>
			<g>
				<path class="st25" d="M1823.8,441.9c-0.8,0-1.6,0-2.4,0c-37.5-1.6-62.2-39.5-63.2-41.1l7.8-5c0.2,0.4,23.2,35.5,55.9,36.9
					c20.4,0.9,40.7-11.7,60.3-37.2l7.4,5.7C1868.7,428.2,1846.6,441.9,1823.8,441.9z"/>
			</g>
			<path class="st25" d="M1766.7,398.2c0,2.6-2.1,4.7-4.7,4.7c-2.6,0-4.7-2.1-4.7-4.7c0-2.6,2.1-4.7,4.7-4.7
				C1764.6,393.6,1766.7,395.7,1766.7,398.2z"/>
			<path class="st25" d="M1890.5,398.2c0,2.6-2.1,4.7-4.7,4.7c-2.6,0-4.7-2.1-4.7-4.7c0-2.6,2.1-4.7,4.7-4.7
				C1888.4,393.6,1890.5,395.7,1890.5,398.2z"/>
		</g>
	</g>
	<g>
		<path class="st9" d="M745.1,402.9c0,42.8-34.7,77.5-77.5,77.5c-42.8,0-77.5-34.7-77.5-77.5c0-42.8,34.7-77.5,77.5-77.5
			C710.4,325.4,745.1,360.1,745.1,402.9z"/>
		<path class="st25" d="M649.3,382.6c0,7.3-5.9,13.2-13.3,13.2c-7.3,0-13.2-5.9-13.2-13.2c0-7.3,5.9-13.3,13.2-13.3
			C643.4,369.4,649.3,375.3,649.3,382.6z"/>
		<path class="st25" d="M707.4,382.6c0,7.3-5.9,13.2-13.2,13.2c-7.3,0-13.3-5.9-13.3-13.2c0-7.3,5.9-13.3,13.3-13.3
			C701.5,369.4,707.4,375.3,707.4,382.6z"/>
		<path class="st18" d="M732.1,404.9c0,4.4-6.2,8-13.9,8c-7.7,0-13.9-3.6-13.9-8c0-4.4,6.2-8,13.9-8
			C725.9,396.9,732.1,400.5,732.1,404.9z"/>
		<path class="st18" d="M630.1,404.9c0,4.4-6.2,8-13.9,8c-7.7,0-13.9-3.6-13.9-8c0-4.4,6.2-8,13.9-8
			C623.9,396.9,630.1,400.5,630.1,404.9z"/>
		<g>
			<path class="st26" d="M683.5,359.7l-5.1-3.1c0.2-0.3,3.9-6.4,11.7-8.3c5.8-1.4,12.2,0,19,4.3l-3.2,5.1
				c-5.3-3.3-10.2-4.5-14.4-3.5C686.2,355.4,683.5,359.7,683.5,359.7z"/>
		</g>
		<g>
			<path class="st26" d="M646.7,359.7c0,0-2.7-4.3-8-5.6c-4.2-1-9,0.2-14.3,3.5l-3.2-5.1c6.7-4.2,13.1-5.7,19-4.3
				c7.7,1.8,11.5,8,11.7,8.3L646.7,359.7l2.6-1.6L646.7,359.7z"/>
		</g>
		<g>
			<g>
				<path class="st25" d="M667.5,451.5c-0.5,0-1,0-1.5,0c-24.1-1-40.1-25.5-40.7-26.5l5-3.2c0.2,0.2,15,22.9,36,23.7
					c13.1,0.6,26.2-7.5,38.8-23.9l4.8,3.7C696.4,442.7,682.2,451.5,667.5,451.5z"/>
			</g>
			<path class="st25" d="M630.8,423.4c0,1.7-1.3,3-3,3c-1.7,0-3-1.3-3-3c0-1.7,1.3-3,3-3C629.4,420.4,630.8,421.7,630.8,423.4z"/>
			<path class="st25" d="M710.5,423.4c0,1.7-1.3,3-3,3c-1.7,0-3-1.3-3-3c0-1.7,1.3-3,3-3C709.1,420.4,710.5,421.7,710.5,423.4z"/>
		</g>
	</g>
	<g>
		<path class="st9" d="M2603.9,243.3c0,42.8-34.7,77.5-77.5,77.5c-42.8,0-77.5-34.7-77.5-77.5c0-42.8,34.7-77.5,77.5-77.5
			C2569.2,165.9,2603.9,200.5,2603.9,243.3z"/>
		<path class="st25" d="M2508.1,223.1c0,7.3-5.9,13.2-13.3,13.2c-7.3,0-13.2-5.9-13.2-13.2c0-7.3,5.9-13.3,13.2-13.3
			C2502.1,209.8,2508.1,215.8,2508.1,223.1z"/>
		<path class="st25" d="M2566.2,223.1c0,7.3-5.9,13.2-13.2,13.2c-7.3,0-13.3-5.9-13.3-13.2c0-7.3,5.9-13.3,13.3-13.3
			C2560.3,209.8,2566.2,215.8,2566.2,223.1z"/>
		<path class="st18" d="M2590.9,245.3c0,4.4-6.2,8-13.9,8c-7.7,0-13.9-3.6-13.9-8c0-4.4,6.2-8,13.9-8
			C2584.7,237.3,2590.9,240.9,2590.9,245.3z"/>
		<path class="st18" d="M2488.9,245.3c0,4.4-6.2,8-13.9,8c-7.7,0-13.9-3.6-13.9-8c0-4.4,6.2-8,13.9-8
			C2482.7,237.3,2488.9,240.9,2488.9,245.3z"/>
		<g>
			<path class="st26" d="M2542.3,200.1l-5.1-3.1c0.2-0.3,3.9-6.4,11.7-8.3c5.9-1.4,12.2,0,19,4.3l-3.2,5.1
				c-5.3-3.3-10.2-4.5-14.4-3.5C2545,195.9,2542.3,200.1,2542.3,200.1z"/>
		</g>
		<g>
			<path class="st26" d="M2505.5,200.2c0,0-2.7-4.3-8-5.6c-4.2-1-9,0.2-14.3,3.5l-3.2-5.1c6.7-4.2,13.1-5.7,19-4.3
				c7.7,1.8,11.5,8,11.7,8.3L2505.5,200.2l2.6-1.6L2505.5,200.2z"/>
		</g>
		<g>
			<g>
				<path class="st25" d="M2526.3,292c-0.5,0-1,0-1.6,0c-24.1-1-40.1-25.5-40.7-26.5l5-3.2c0.2,0.2,15,22.9,36,23.7
					c13.1,0.6,26.2-7.5,38.8-23.9l4.8,3.7C2555.2,283.1,2541,292,2526.3,292z"/>
			</g>
			<path class="st25" d="M2489.6,263.8c0,1.7-1.3,3-3,3c-1.7,0-3-1.3-3-3c0-1.7,1.3-3,3-3C2488.2,260.8,2489.6,262.2,2489.6,263.8z"
				/>
			<path class="st25" d="M2569.3,263.8c0,1.7-1.3,3-3,3c-1.7,0-3-1.3-3-3c0-1.7,1.4-3,3-3C2567.9,260.8,2569.3,262.2,2569.3,263.8z"
				/>
		</g>
	</g>
	<g>
		<g>
			<path class="st27" d="M1665.2,532.8c0,29.2-23.7,52.9-52.9,52.9c-29.2,0-52.9-23.7-52.9-52.9c0-29.2,23.7-52.9,52.9-52.9
				C1641.5,479.9,1665.2,503.6,1665.2,532.8z"/>
			<path class="st28" d="M1599.8,519c0,5-4.1,9-9,9c-5,0-9-4-9-9c0-5,4.1-9,9-9C1595.8,510,1599.8,514,1599.8,519z"/>
			<path class="st28" d="M1639.5,519c0,5-4.1,9-9,9c-5,0-9-4-9-9c0-5,4.1-9,9-9C1635.4,510,1639.5,514,1639.5,519z"/>
			<path class="st13" d="M1656.3,534.2c0,3-4.2,5.5-9.5,5.5c-5.2,0-9.5-2.4-9.5-5.5c0-3,4.2-5.5,9.5-5.5
				C1652.1,528.7,1656.3,531.2,1656.3,534.2z"/>
			<path class="st13" d="M1586.7,534.2c0,3-4.2,5.5-9.5,5.5c-5.2,0-9.5-2.4-9.5-5.5c0-3,4.2-5.5,9.5-5.5
				C1582.5,528.7,1586.7,531.2,1586.7,534.2z"/>
			<g>
				<path class="st29" d="M1623.2,503.3l-3.5-2.1c0.1-0.2,2.7-4.4,8-5.6c4-0.9,8.4,0,13,2.9l-2.2,3.5c-3.6-2.3-6.9-3.1-9.8-2.4
					C1625,500.4,1623.2,503.3,1623.2,503.3z"/>
			</g>
			<g>
				<path class="st29" d="M1598.1,503.3c0,0-1.9-3-5.5-3.8c-2.9-0.7-6.2,0.1-9.8,2.4l-2.2-3.5c4.6-2.9,9-3.9,13-2.9
					c5.3,1.3,7.9,5.5,8,5.6L1598.1,503.3l1.8-1.1L1598.1,503.3z"/>
			</g>
			<g>
				<g>
					<path class="st0" d="M1612.2,566c-0.3,0-0.7,0-1.1,0c-16.5-0.7-27.4-17.4-27.8-18.1l3.4-2.2c0.1,0.2,10.2,15.6,24.6,16.2
						c8.9,0.4,17.9-5.1,26.5-16.3l3.3,2.5C1632,560,1622.3,566,1612.2,566z"/>
				</g>
				<path class="st0" d="M1587.2,546.8c0,1.1-0.9,2-2,2c-1.1,0-2-0.9-2-2c0-1.1,0.9-2,2-2C1586.2,544.8,1587.2,545.7,1587.2,546.8z"
					/>
				<path class="st0" d="M1641.6,546.8c0,1.1-0.9,2-2.1,2c-1.1,0-2-0.9-2-2c0-1.1,0.9-2,2-2C1640.6,544.8,1641.6,545.7,1641.6,546.8
					z"/>
			</g>
		</g>
		<path class="st0" d="M1585.1,544.8h54.4l-9.1,12.4l-20.6,7.2C1609.8,564.3,1588,556.2,1585.1,544.8z"/>
	</g>
	<g>
		<g>
			<path class="st27" d="M1154.8,253.8c0,29.2-23.7,52.9-52.9,52.9c-29.2,0-52.9-23.7-52.9-52.9c0-29.2,23.7-52.9,52.9-52.9
				C1131.2,201,1154.8,224.6,1154.8,253.8z"/>
			<path class="st28" d="M1089.4,240c0,5-4.1,9-9,9c-5,0-9-4-9-9c0-5,4.1-9,9-9C1085.4,231,1089.4,235,1089.4,240z"/>
			<path class="st28" d="M1129.1,240c0,5-4.1,9-9,9c-5,0-9-4-9-9c0-5,4.1-9,9-9C1125.1,231,1129.1,235,1129.1,240z"/>
			<path class="st13" d="M1146,255.2c0,3-4.2,5.5-9.5,5.5c-5.2,0-9.5-2.4-9.5-5.5c0-3,4.2-5.5,9.5-5.5
				C1141.7,249.7,1146,252.2,1146,255.2z"/>
			<path class="st13" d="M1076.4,255.2c0,3-4.2,5.5-9.5,5.5c-5.2,0-9.5-2.4-9.5-5.5c0-3,4.2-5.5,9.5-5.5
				C1072.1,249.7,1076.4,252.2,1076.4,255.2z"/>
			<g>
				<path class="st29" d="M1112.8,224.4l-3.5-2.1c0.1-0.2,2.7-4.4,8-5.6c4-0.9,8.4,0,13,2.9l-2.2,3.5c-3.6-2.3-6.9-3.1-9.8-2.4
					C1114.6,221.4,1112.8,224.3,1112.8,224.4z"/>
			</g>
			<g>
				<path class="st29" d="M1087.7,224.4c0,0-1.9-3-5.5-3.8c-2.9-0.7-6.2,0.1-9.8,2.4l-2.2-3.5c4.6-2.9,9-3.9,13-2.9
					c5.3,1.3,7.9,5.5,8,5.6L1087.7,224.4l1.8-1.1L1087.7,224.4z"/>
			</g>
			<g>
				<g>
					<path class="st0" d="M1101.9,287c-0.3,0-0.7,0-1.1,0c-16.5-0.7-27.4-17.4-27.8-18.1l3.4-2.2c0.1,0.2,10.2,15.6,24.6,16.2
						c8.9,0.4,17.9-5.1,26.5-16.3l3.3,2.5C1121.6,281,1111.9,287,1101.9,287z"/>
				</g>
				<path class="st0" d="M1076.8,267.8c0,1.1-0.9,2-2,2c-1.1,0-2-0.9-2-2c0-1.1,0.9-2,2-2C1075.9,265.8,1076.8,266.7,1076.8,267.8z"
					/>
				<path class="st0" d="M1131.2,267.8c0,1.1-0.9,2-2.1,2c-1.1,0-2-0.9-2-2c0-1.1,0.9-2,2-2C1130.3,265.8,1131.2,266.7,1131.2,267.8
					z"/>
			</g>
		</g>
		<path class="st0" d="M1074.8,265.8h54.4l-9.1,12.4l-20.6,7.2C1099.5,285.3,1077.7,277.2,1074.8,265.8z"/>
	</g>
</g>
</svg>
